<?xml version="1.0" encoding="UTF-8" standalone="no"?>
<!DOCTYPE svg PUBLIC "-//W3C//DTD SVG 1.0//EN" "http://www.w3.org/TR/2001/PR-SVG-20010719/DTD/svg10.dtd">
<svg width="38cm" height="22cm" viewBox="-2 -3361 741 422" xmlns="http://www.w3.org/2000/svg" xmlns:xlink="http://www.w3.org/1999/xlink">
  <g>
    <path style="fill: #b6c7c9" d="M 426.081 -3114.07 L 426.029,-3116.34 L 425.847,-3118.62 L 425.509,-3120.85 L 425.041,-3123.09 L 424.417,-3125.36 L 423.716,-3127.56 L 422.832,-3129.71 L 421.845,-3131.83 L 420.78,-3133.94 L 419.532,-3135.94 L 418.207,-3137.93 L 416.752,-3139.81 L 415.167,-3141.68 L 413.504,-3143.44 L 411.737,-3145.16 L 409.84,-3146.75 L 407.891,-3148.31 L 405.864,-3149.74 L 403.733,-3151.1 L 401.524,-3152.34 L 399.238,-3153.54 L 396.873,-3154.53 L 394.508,-3155.53 L 392.04,-3156.37 L 389.519,-3157.13 L 386.999,-3157.77 L 384.426,-3158.28 L 381.828,-3158.64 L 379.203,-3158.96 L 376.553,-3159.12 L 373.902,-3159.2 L 373.902,-3159.2 L 371.278,-3159.12 L 368.601,-3158.96 L 366.003,-3158.64 L 363.404,-3158.28 L 360.806,-3157.77 L 358.285,-3157.13 L 355.764,-3156.37 L 353.322,-3155.53 L 350.905,-3154.53 L 348.592,-3153.54 L 346.306,-3152.34 L 344.123,-3151.1 L 341.966,-3149.74 L 339.939,-3148.31 L 337.964,-3146.75 L 336.068,-3145.16 L 334.301,-3143.44 L 332.638,-3141.68 L 331.052,-3139.81 L 329.597,-3137.93 L 328.272,-3135.94 L 327.051,-3133.94 L 325.933,-3131.83 L 324.998,-3129.71 L 324.114,-3127.56 L 323.387,-3125.36 L 322.763,-3123.09 L 322.347,-3120.85 L 322.01,-3118.62 L 321.776,-3116.34 L 321.75,-3114.07 L 321.75,-3114.07 L 321.776,-3111.75 L 322.01,-3109.48 L 322.347,-3107.2 L 322.763,-3104.97 L 323.387,-3102.74 L 324.114,-3100.54 L 324.998,-3098.39 L 325.933,-3096.23 L 327.051,-3094.16 L 328.272,-3092.16 L 329.597,-3090.17 L 331.052,-3088.25 L 332.638,-3086.41 L 334.301,-3084.66 L 336.068,-3082.94 L 337.964,-3081.31 L 339.939,-3079.83 L 341.966,-3078.31 L 344.123,-3076.96 L 346.306,-3075.72 L 348.592,-3074.6 L 350.905,-3073.52 L 353.322,-3072.57 L 355.764,-3071.73 L 358.285,-3070.97 L 360.806,-3070.33 L 363.404,-3069.85 L 366.003,-3069.45 L 368.601,-3069.09 L 371.278,-3068.98 L 373.902,-3068.94 L 373.902,-3068.94 L 376.553,-3068.98 L 379.203,-3069.09 L 381.828,-3069.45 L 384.426,-3069.85 L 386.999,-3070.33 L 389.519,-3070.97 L 392.04,-3071.73 L 394.508,-3072.57 L 396.873,-3073.52 L 399.238,-3074.6 L 401.524,-3075.72 L 403.733,-3076.96 L 405.864,-3078.31 L 407.891,-3079.83 L 409.84,-3081.31 L 411.737,-3082.94 L 413.504,-3084.66 L 415.167,-3086.41 L 416.752,-3088.25 L 418.207,-3090.17 L 419.532,-3092.16 L 420.78,-3094.16 L 421.845,-3096.23 L 422.832,-3098.39 L 423.716,-3100.54 L 424.417,-3102.74 L 425.041,-3104.97 L 425.509,-3107.2 L 425.847,-3109.48 L 426.029,-3111.75 L 426.081,-3114.07z"/>
    <path style="fill: #b6c7c9" d="M 344.305 -3090.36 L 344.253,-3092.64 L 344.071,-3094.91 L 343.863,-3097.15 L 343.499,-3099.42 L 343.032,-3101.66 L 342.46,-3103.85 L 341.784,-3106.01 L 341.057,-3108.12 L 340.225,-3110.24 L 339.29,-3112.23 L 338.276,-3114.23 L 337.159,-3116.1 L 335.912,-3117.98 L 334.638,-3119.74 L 333.287,-3121.45 L 331.832,-3123.05 L 330.377,-3124.6 L 328.766,-3126.04 L 327.155,-3127.4 L 325.44,-3128.59 L 323.725,-3129.83 L 321.932,-3130.91 L 320.061,-3131.83 L 318.19,-3132.66 L 316.267,-3133.42 L 314.318,-3134.06 L 312.343,-3134.58 L 310.342,-3134.94 L 308.367,-3135.26 L 306.34,-3135.46 L 304.314,-3135.5 L 304.314,-3135.5 L 302.287,-3135.46 L 300.26,-3135.26 L 298.233,-3134.94 L 296.258,-3134.58 L 294.257,-3134.06 L 292.308,-3133.42 L 290.411,-3132.66 L 288.54,-3131.83 L 286.696,-3130.91 L 284.903,-3129.83 L 283.136,-3128.59 L 281.472,-3127.4 L 279.809,-3126.04 L 278.25,-3124.6 L 276.769,-3123.05 L 275.314,-3121.45 L 273.963,-3119.74 L 272.663,-3117.98 L 271.442,-3116.1 L 270.351,-3114.23 L 269.311,-3112.23 L 268.402,-3110.24 L 267.544,-3108.12 L 266.791,-3106.01 L 266.141,-3103.85 L 265.57,-3101.66 L 265.102,-3099.42 L 264.764,-3097.15 L 264.504,-3094.91 L 264.348,-3092.64 L 264.296,-3090.36 L 264.296,-3090.36 L 264.348,-3088.05 L 264.504,-3085.78 L 264.764,-3083.5 L 265.102,-3081.27 L 265.57,-3079.03 L 266.141,-3076.84 L 266.791,-3074.68 L 267.544,-3072.57 L 268.402,-3070.45 L 269.311,-3068.46 L 270.351,-3066.46 L 271.442,-3064.59 L 272.663,-3062.71 L 273.963,-3060.95 L 275.314,-3059.24 L 276.769,-3057.64 L 278.25,-3056.13 L 279.809,-3054.69 L 281.472,-3053.25 L 283.136,-3052.02 L 284.903,-3050.9 L 286.696,-3049.78 L 288.54,-3048.86 L 290.411,-3048.02 L 292.308,-3047.27 L 294.257,-3046.67 L 296.258,-3046.15 L 298.233,-3045.75 L 300.26,-3045.39 L 302.287,-3045.27 L 304.314,-3045.23 L 304.314,-3045.23 L 306.34,-3045.27 L 308.367,-3045.39 L 310.342,-3045.75 L 312.343,-3046.15 L 314.318,-3046.67 L 316.267,-3047.27 L 318.19,-3048.02 L 320.061,-3048.86 L 321.932,-3049.78 L 323.725,-3050.9 L 325.44,-3052.02 L 327.155,-3053.25 L 328.766,-3054.69 L 330.377,-3056.13 L 331.832,-3057.64 L 333.287,-3059.24 L 334.638,-3060.95 L 335.912,-3062.71 L 337.159,-3064.59 L 338.276,-3066.46 L 339.29,-3068.46 L 340.225,-3070.45 L 341.057,-3072.57 L 341.784,-3074.68 L 342.46,-3076.84 L 343.032,-3079.03 L 343.499,-3081.27 L 343.863,-3083.5 L 344.071,-3085.78 L 344.253,-3088.05 L 344.305,-3090.36z"/>
    <path style="fill: #b6c7c9" d="M 293.867 -3044.27 L 293.841,-3046.15 L 293.764,-3048.02 L 293.582,-3049.9 L 293.348,-3051.74 L 293.01,-3053.49 L 292.62,-3055.33 L 292.204,-3057.12 L 291.711,-3058.84 L 291.139,-3060.56 L 290.489,-3062.19 L 289.788,-3063.75 L 289.034,-3065.34 L 288.229,-3066.86 L 287.371,-3068.34 L 286.436,-3069.69 L 285.474,-3070.97 L 284.487,-3072.29 L 283.447,-3073.44 L 282.33,-3074.56 L 281.187,-3075.6 L 280.017,-3076.52 L 278.796,-3077.4 L 277.575,-3078.15 L 276.301,-3078.83 L 275.002,-3079.47 L 273.703,-3079.95 L 272.378,-3080.43 L 271,-3080.71 L 269.649,-3080.95 L 268.324,-3081.07 L 266.947,-3081.15 L 266.947,-3081.15 L 265.57,-3081.07 L 264.192,-3080.95 L 262.841,-3080.71 L 261.516,-3080.43 L 260.165,-3079.95 L 258.839,-3079.47 L 257.566,-3078.83 L 256.319,-3078.15 L 255.045,-3077.4 L 253.824,-3076.52 L 252.655,-3075.6 L 251.511,-3074.56 L 250.42,-3073.44 L 249.355,-3072.29 L 248.367,-3070.97 L 247.406,-3069.69 L 246.496,-3068.34 L 245.613,-3066.86 L 244.807,-3065.34 L 244.054,-3063.75 L 243.352,-3062.19 L 242.754,-3060.56 L 242.183,-3058.84 L 241.689,-3057.12 L 241.221,-3055.33 L 240.832,-3053.49 L 240.546,-3051.74 L 240.312,-3049.9 L 240.104,-3048.02 L 240,-3046.15 L 240,-3044.27 L 240,-3044.27 L 240,-3042.48 L 240.104,-3040.6 L 240.312,-3038.77 L 240.546,-3036.93 L 240.832,-3035.06 L 241.221,-3033.3 L 241.689,-3031.54 L 242.183,-3029.79 L 242.754,-3028.07 L 243.352,-3026.44 L 244.054,-3024.84 L 244.807,-3023.28 L 245.613,-3021.77 L 246.496,-3020.33 L 247.406,-3018.97 L 248.367,-3017.66 L 249.355,-3016.34 L 250.42,-3015.22 L 251.511,-3014.1 L 252.655,-3013.07 L 253.824,-3012.11 L 255.045,-3011.23 L 256.319,-3010.47 L 257.566,-3009.8 L 258.839,-3009.2 L 260.165,-3008.68 L 261.516,-3008.24 L 262.841,-3007.88 L 264.192,-3007.68 L 265.57,-3007.56 L 266.947,-3007.48 L 266.947,-3007.48 L 268.324,-3007.56 L 269.649,-3007.68 L 271,-3007.88 L 272.378,-3008.24 L 273.703,-3008.68 L 275.002,-3009.2 L 276.301,-3009.8 L 277.575,-3010.47 L 278.796,-3011.23 L 280.017,-3012.11 L 281.187,-3013.07 L 282.33,-3014.1 L 283.447,-3015.22 L 284.487,-3016.34 L 285.474,-3017.66 L 286.436,-3018.97 L 287.371,-3020.33 L 288.229,-3021.77 L 289.034,-3023.28 L 289.788,-3024.84 L 290.489,-3026.44 L 291.139,-3028.07 L 291.711,-3029.79 L 292.204,-3031.54 L 292.62,-3033.3 L 293.01,-3035.06 L 293.348,-3036.93 L 293.582,-3038.77 L 293.764,-3040.6 L 293.841,-3042.48 L 293.867,-3044.27z"/>
    <path style="fill: #b6c7c9" d="M 337.367 -3008.8 L 337.341,-3010.83 L 337.159,-3012.83 L 336.873,-3014.86 L 336.535,-3016.86 L 336.068,-3018.81 L 335.522,-3020.77 L 334.82,-3022.68 L 334.093,-3024.56 L 333.209,-3026.32 L 332.274,-3028.15 L 331.208,-3029.91 L 330.091,-3031.54 L 328.896,-3033.18 L 327.596,-3034.82 L 326.219,-3036.29 L 324.764,-3037.73 L 323.231,-3039.05 L 321.62,-3040.36 L 319.983,-3041.52 L 318.268,-3042.68 L 316.475,-3043.67 L 314.656,-3044.63 L 312.785,-3045.47 L 310.888,-3046.23 L 308.939,-3046.87 L 306.938,-3047.39 L 304.963,-3047.87 L 302.936,-3048.26 L 300.909,-3048.5 L 298.857,-3048.66 L 296.778,-3048.7 L 296.778,-3048.7 L 294.725,-3048.66 L 292.698,-3048.5 L 290.619,-3048.26 L 288.618,-3047.87 L 286.592,-3047.39 L 284.643,-3046.87 L 282.694,-3046.23 L 280.771,-3045.47 L 278.9,-3044.63 L 277.107,-3043.67 L 275.314,-3042.68 L 273.599,-3041.52 L 271.936,-3040.36 L 270.351,-3039.05 L 268.818,-3037.73 L 267.362,-3036.29 L 265.985,-3034.82 L 264.686,-3033.18 L 263.465,-3031.54 L 262.347,-3029.91 L 261.282,-3028.15 L 260.32,-3026.32 L 259.489,-3024.56 L 258.735,-3022.68 L 258.034,-3020.77 L 257.462,-3018.81 L 257.046,-3016.86 L 256.657,-3014.86 L 256.397,-3012.83 L 256.241,-3010.83 L 256.189,-3008.8 L 256.189,-3008.8 L 256.241,-3006.8 L 256.397,-3004.77 L 256.657,-3002.77 L 257.046,-3000.78 L 257.462,-2998.82 L 258.034,-2996.87 L 258.735,-2994.91 L 259.489,-2993.03 L 260.32,-2991.24 L 261.282,-2989.48 L 262.347,-2987.73 L 263.465,-2986.05 L 264.686,-2984.38 L 265.985,-2982.78 L 267.362,-2981.3 L 268.818,-2979.91 L 270.351,-2978.55 L 271.936,-2977.27 L 273.599,-2976.07 L 275.314,-2974.92 L 277.107,-2973.92 L 278.9,-2972.96 L 280.771,-2972.16 L 282.694,-2971.41 L 284.643,-2970.77 L 286.592,-2970.21 L 288.618,-2969.69 L 290.619,-2969.33 L 292.698,-2969.09 L 294.725,-2968.93 L 296.778,-2968.93 L 296.778,-2968.93 L 298.857,-2968.93 L 300.909,-2969.09 L 302.936,-2969.33 L 304.963,-2969.69 L 306.938,-2970.21 L 308.939,-2970.77 L 310.888,-2971.41 L 312.785,-2972.16 L 314.656,-2972.96 L 316.475,-2973.92 L 318.268,-2974.92 L 319.983,-2976.07 L 321.62,-2977.27 L 323.231,-2978.55 L 324.764,-2979.91 L 326.219,-2981.3 L 327.596,-2982.78 L 328.896,-2984.38 L 330.091,-2986.05 L 331.208,-2987.73 L 332.274,-2989.48 L 333.209,-2991.24 L 334.093,-2993.03 L 334.82,-2994.91 L 335.522,-2996.87 L 336.068,-2998.82 L 336.535,-3000.78 L 336.873,-3002.77 L 337.159,-3004.77 L 337.341,-3006.8 L 337.367,-3008.8z"/>
    <path style="fill: #b6c7c9" d="M 434.786 -2988.17 L 434.682,-2990.6 L 434.474,-2993.03 L 434.058,-2995.39 L 433.512,-2997.74 L 432.837,-3000.1 L 432.005,-3002.37 L 431.018,-3004.61 L 429.874,-3006.88 L 428.575,-3009.08 L 427.172,-3011.19 L 425.587,-3013.23 L 423.924,-3015.22 L 422.105,-3017.18 L 420.182,-3019.05 L 418.077,-3020.85 L 415.946,-3022.52 L 413.66,-3024.16 L 411.269,-3025.68 L 408.826,-3027.07 L 406.228,-3028.39 L 403.603,-3029.63 L 400.875,-3030.71 L 398.094,-3031.74 L 395.21,-3032.62 L 392.326,-3033.42 L 389.363,-3034.06 L 386.401,-3034.62 L 383.335,-3035.02 L 380.346,-3035.29 L 377.254,-3035.53 L 374.188,-3035.53 L 374.188,-3035.53 L 371.122,-3035.53 L 368.055,-3035.29 L 365.015,-3035.02 L 362.001,-3034.62 L 358.987,-3034.06 L 356.05,-3033.42 L 353.14,-3032.62 L 350.307,-3031.74 L 347.475,-3030.71 L 344.799,-3029.63 L 342.122,-3028.39 L 339.576,-3027.07 L 337.107,-3025.68 L 334.742,-3024.16 L 332.456,-3022.52 L 330.273,-3020.85 L 328.22,-3019.05 L 326.297,-3017.18 L 324.452,-3015.22 L 322.763,-3013.23 L 321.204,-3011.19 L 319.827,-3009.08 L 318.528,-3006.88 L 317.384,-3004.61 L 316.397,-3002.37 L 315.539,-3000.1 L 314.864,-2997.74 L 314.292,-2995.39 L 313.902,-2993.03 L 313.668,-2990.6 L 313.59,-2988.17 L 313.59,-2988.17 L 313.668,-2985.85 L 313.902,-2983.42 L 314.292,-2981.06 L 314.864,-2978.67 L 315.539,-2976.31 L 316.397,-2974.04 L 317.384,-2971.8 L 318.528,-2969.53 L 319.827,-2967.34 L 321.204,-2965.22 L 322.763,-2963.19 L 324.452,-2961.11 L 326.297,-2959.23 L 328.22,-2957.36 L 330.273,-2955.6 L 332.456,-2953.85 L 334.742,-2952.25 L 337.107,-2950.73 L 339.576,-2949.34 L 342.122,-2947.98 L 344.799,-2946.82 L 347.475,-2945.71 L 350.307,-2944.71 L 353.14,-2943.83 L 356.05,-2942.99 L 358.987,-2942.39 L 362.001,-2941.84 L 365.015,-2941.4 L 368.055,-2941.12 L 371.122,-2940.88 L 374.188,-2940.88 L 374.188,-2940.88 L 377.254,-2940.88 L 380.346,-2941.12 L 383.335,-2941.4 L 386.401,-2941.84 L 389.363,-2942.39 L 392.326,-2942.99 L 395.21,-2943.83 L 398.094,-2944.71 L 400.875,-2945.71 L 403.603,-2946.82 L 406.228,-2947.98 L 408.826,-2949.34 L 411.269,-2950.73 L 413.66,-2952.25 L 415.946,-2953.85 L 418.077,-2955.6 L 420.182,-2957.36 L 422.105,-2959.23 L 423.924,-2961.11 L 425.587,-2963.19 L 427.172,-2965.22 L 428.575,-2967.34 L 429.874,-2969.53 L 431.018,-2971.8 L 432.005,-2974.04 L 432.837,-2976.31 L 433.512,-2978.67 L 434.058,-2981.06 L 434.474,-2983.42 L 434.682,-2985.85 L 434.786,-2988.17z"/>
    <path style="fill: #b6c7c9" d="M 468.411 -3097.39 L 468.385,-3099.14 L 468.229,-3100.98 L 467.943,-3102.78 L 467.631,-3104.53 L 467.163,-3106.25 L 466.644,-3108 L 465.994,-3109.72 L 465.24,-3111.39 L 464.435,-3112.99 L 463.551,-3114.63 L 462.538,-3116.18 L 461.447,-3117.7 L 460.303,-3119.1 L 459.03,-3120.53 L 457.731,-3121.85 L 456.301,-3123.09 L 454.846,-3124.36 L 453.339,-3125.48 L 451.728,-3126.52 L 450.091,-3127.52 L 448.428,-3128.43 L 446.661,-3129.27 L 444.868,-3130.03 L 443.049,-3130.71 L 441.178,-3131.31 L 439.307,-3131.71 L 437.384,-3132.19 L 435.461,-3132.5 L 433.486,-3132.7 L 431.537,-3132.82 L 429.563,-3132.9 L 429.563,-3132.9 L 427.562,-3132.82 L 425.613,-3132.7 L 423.638,-3132.5 L 421.715,-3132.19 L 419.818,-3131.71 L 417.921,-3131.31 L 416.076,-3130.71 L 414.231,-3130.03 L 412.438,-3129.27 L 410.671,-3128.43 L 408.982,-3127.52 L 407.371,-3126.52 L 405.76,-3125.48 L 404.253,-3124.36 L 402.798,-3123.09 L 401.395,-3121.85 L 400.069,-3120.53 L 398.796,-3119.1 L 397.653,-3117.7 L 396.587,-3116.18 L 395.548,-3114.63 L 394.664,-3112.99 L 393.859,-3111.39 L 393.105,-3109.72 L 392.456,-3108 L 391.936,-3106.25 L 391.494,-3104.53 L 391.13,-3102.78 L 390.896,-3100.98 L 390.767,-3099.14 L 390.689,-3097.39 L 390.689,-3097.39 L 390.767,-3095.59 L 390.896,-3093.8 L 391.13,-3092.04 L 391.494,-3090.24 L 391.936,-3088.49 L 392.456,-3086.77 L 393.105,-3085.06 L 393.859,-3083.38 L 394.664,-3081.71 L 395.548,-3080.15 L 396.587,-3078.63 L 397.653,-3077.08 L 398.796,-3075.64 L 400.069,-3074.28 L 401.395,-3072.93 L 402.798,-3071.65 L 404.253,-3070.45 L 405.76,-3069.33 L 407.371,-3068.22 L 408.982,-3067.22 L 410.671,-3066.34 L 412.438,-3065.46 L 414.231,-3064.75 L 416.076,-3064.11 L 417.921,-3063.47 L 419.818,-3062.99 L 421.715,-3062.59 L 423.638,-3062.23 L 425.613,-3062.07 L 427.562,-3061.87 L 429.563,-3061.87 L 429.563,-3061.87 L 431.537,-3061.87 L 433.486,-3062.07 L 435.461,-3062.23 L 437.384,-3062.59 L 439.307,-3062.99 L 441.178,-3063.47 L 443.049,-3064.11 L 444.868,-3064.75 L 446.661,-3065.46 L 448.428,-3066.34 L 450.091,-3067.22 L 451.728,-3068.22 L 453.339,-3069.33 L 454.846,-3070.45 L 456.301,-3071.65 L 457.731,-3072.93 L 459.03,-3074.28 L 460.303,-3075.64 L 461.447,-3077.08 L 462.538,-3078.63 L 463.551,-3080.15 L 464.435,-3081.71 L 465.24,-3083.38 L 465.994,-3085.06 L 466.644,-3086.77 L 467.163,-3088.49 L 467.631,-3090.24 L 467.943,-3092.04 L 468.229,-3093.8 L 468.385,-3095.59 L 468.411,-3097.39z"/>
    <path style="fill: #b6c7c9" d="M 479.428 -3051.78 L 479.35,-3053.57 L 479.246,-3055.37 L 478.987,-3057.12 L 478.649,-3058.88 L 478.181,-3060.67 L 477.661,-3062.35 L 477.038,-3064.11 L 476.284,-3065.74 L 475.479,-3067.42 L 474.595,-3068.98 L 473.582,-3070.57 L 472.49,-3072.05 L 471.373,-3073.44 L 470.1,-3074.92 L 468.8,-3076.2 L 467.449,-3077.51 L 465.994,-3078.71 L 464.435,-3079.83 L 462.902,-3080.91 L 461.265,-3081.9 L 459.602,-3082.82 L 457.861,-3083.66 L 456.094,-3084.38 L 454.275,-3085.06 L 452.404,-3085.66 L 450.533,-3086.13 L 448.636,-3086.53 L 446.687,-3086.89 L 444.764,-3087.05 L 442.815,-3087.17 L 440.866,-3087.25 L 440.866,-3087.25 L 438.891,-3087.17 L 436.968,-3087.05 L 435.019,-3086.89 L 433.123,-3086.53 L 431.226,-3086.13 L 429.329,-3085.66 L 427.484,-3085.06 L 425.691,-3084.38 L 423.898,-3083.66 L 422.157,-3082.82 L 420.494,-3081.9 L 418.857,-3080.91 L 417.272,-3079.83 L 415.79,-3078.71 L 414.335,-3077.51 L 412.906,-3076.2 L 411.607,-3074.92 L 410.385,-3073.44 L 409.268,-3072.05 L 408.177,-3070.57 L 407.189,-3068.98 L 406.254,-3067.42 L 405.448,-3065.74 L 404.747,-3064.11 L 404.097,-3062.35 L 403.525,-3060.67 L 403.11,-3058.88 L 402.772,-3057.12 L 402.512,-3055.37 L 402.356,-3053.57 L 402.33,-3051.78 L 402.33,-3051.78 L 402.356,-3049.98 L 402.512,-3048.14 L 402.772,-3046.39 L 403.11,-3044.63 L 403.525,-3042.88 L 404.097,-3041.16 L 404.747,-3039.41 L 405.448,-3037.77 L 406.254,-3036.17 L 407.189,-3034.54 L 408.177,-3033.02 L 409.268,-3031.5 L 410.385,-3030.07 L 411.607,-3028.67 L 412.906,-3027.31 L 414.335,-3026.08 L 415.79,-3024.84 L 417.272,-3023.72 L 418.857,-3022.68 L 420.494,-3021.69 L 422.157,-3020.77 L 423.898,-3019.93 L 425.691,-3019.17 L 427.484,-3018.45 L 429.329,-3017.86 L 431.226,-3017.46 L 433.123,-3016.98 L 435.019,-3016.7 L 436.968,-3016.46 L 438.891,-3016.34 L 440.866,-3016.3 L 440.866,-3016.3 L 442.815,-3016.34 L 444.764,-3016.46 L 446.687,-3016.7 L 448.636,-3016.98 L 450.533,-3017.46 L 452.404,-3017.86 L 454.275,-3018.45 L 456.094,-3019.17 L 457.861,-3019.93 L 459.602,-3020.77 L 461.265,-3021.69 L 462.902,-3022.68 L 464.435,-3023.72 L 465.994,-3024.84 L 467.449,-3026.08 L 468.8,-3027.31 L 470.1,-3028.67 L 471.373,-3030.07 L 472.49,-3031.5 L 473.582,-3033.02 L 474.595,-3034.54 L 475.479,-3036.17 L 476.284,-3037.77 L 477.038,-3039.41 L 477.661,-3041.16 L 478.181,-3042.88 L 478.649,-3044.63 L 478.987,-3046.39 L 479.246,-3048.14 L 479.35,-3049.98 L 479.428,-3051.78z"/>
    <path style="fill: #b6c7c9" d="M 471.893 -3014.06 L 471.841,-3016.98 L 471.685,-3019.97 L 471.477,-3022.84 L 471.139,-3025.8 L 470.697,-3028.67 L 470.152,-3031.5 L 469.528,-3034.3 L 468.774,-3037.05 L 467.969,-3039.72 L 467.111,-3042.36 L 466.124,-3044.91 L 465.032,-3047.35 L 463.889,-3049.74 L 462.642,-3052.02 L 461.343,-3054.21 L 459.991,-3056.33 L 458.536,-3058.32 L 457.055,-3060.12 L 455.47,-3061.87 L 453.859,-3063.47 L 452.196,-3064.98 L 450.507,-3066.34 L 448.74,-3067.62 L 446.947,-3068.74 L 445.076,-3069.69 L 443.231,-3070.45 L 441.308,-3071.17 L 439.411,-3071.69 L 437.514,-3072.05 L 435.591,-3072.29 L 433.642,-3072.33 L 433.642,-3072.33 L 431.693,-3072.29 L 429.77,-3072.05 L 427.822,-3071.69 L 425.925,-3071.17 L 424.054,-3070.45 L 422.157,-3069.69 L 420.338,-3068.74 L 418.545,-3067.62 L 416.778,-3066.34 L 415.037,-3064.98 L 413.374,-3063.47 L 411.763,-3061.87 L 410.23,-3060.12 L 408.696,-3058.32 L 407.267,-3056.33 L 405.89,-3054.21 L 404.591,-3052.02 L 403.369,-3049.74 L 402.2,-3047.35 L 401.161,-3044.91 L 400.173,-3042.36 L 399.264,-3039.72 L 398.458,-3037.05 L 397.757,-3034.3 L 397.133,-3031.5 L 396.587,-3028.67 L 396.146,-3025.8 L 395.808,-3022.84 L 395.548,-3019.97 L 395.392,-3016.98 L 395.34,-3014.06 L 395.34,-3014.06 L 395.392,-3011.11 L 395.548,-3008.12 L 395.808,-3005.25 L 396.146,-3002.33 L 396.587,-2999.38 L 397.133,-2996.59 L 397.757,-2993.83 L 398.458,-2991.04 L 399.264,-2988.41 L 400.173,-2985.77 L 401.161,-2983.18 L 402.2,-2980.74 L 403.369,-2978.39 L 404.591,-2976.07 L 405.89,-2973.88 L 407.267,-2971.8 L 408.696,-2969.81 L 410.23,-2967.93 L 411.763,-2966.22 L 413.374,-2964.58 L 415.037,-2963.11 L 416.778,-2961.71 L 418.545,-2960.47 L 420.338,-2959.35 L 422.157,-2958.44 L 424.054,-2957.6 L 425.925,-2956.96 L 427.822,-2956.44 L 429.77,-2956.08 L 431.693,-2955.84 L 433.642,-2955.72 L 433.642,-2955.72 L 435.591,-2955.84 L 437.514,-2956.08 L 439.411,-2956.44 L 441.308,-2956.96 L 443.231,-2957.6 L 445.076,-2958.44 L 446.947,-2959.35 L 448.74,-2960.47 L 450.507,-2961.71 L 452.196,-2963.11 L 453.859,-2964.58 L 455.47,-2966.22 L 457.055,-2967.93 L 458.536,-2969.81 L 459.991,-2971.8 L 461.343,-2973.88 L 462.642,-2976.07 L 463.889,-2978.39 L 465.032,-2980.74 L 466.124,-2983.18 L 467.111,-2985.77 L 467.969,-2988.41 L 468.774,-2991.04 L 469.528,-2993.83 L 470.152,-2996.59 L 470.697,-2999.38 L 471.139,-3002.33 L 471.477,-3005.25 L 471.685,-3008.12 L 471.841,-3011.11 L 471.893,-3014.06z"/>
    <path style="fill: #b6c7c9" d="M 438.839 -3049.14 L 438.735,-3052.13 L 438.424,-3055.01 L 437.93,-3058 L 437.254,-3060.87 L 436.371,-3063.75 L 435.279,-3066.62 L 434.006,-3069.41 L 432.525,-3072.17 L 430.914,-3074.84 L 429.095,-3077.44 L 427.068,-3080.03 L 424.911,-3082.5 L 422.573,-3084.82 L 420.078,-3087.13 L 417.427,-3089.37 L 414.673,-3091.44 L 411.737,-3093.4 L 408.67,-3095.27 L 405.526,-3097.03 L 402.226,-3098.66 L 398.822,-3100.14 L 395.34,-3101.54 L 391.78,-3102.78 L 388.142,-3103.85 L 384.4,-3104.77 L 380.606,-3105.61 L 376.786,-3106.25 L 372.915,-3106.77 L 369.017,-3107.2 L 365.093,-3107.4 L 361.117,-3107.48 L 361.117,-3107.48 L 357.194,-3107.4 L 353.27,-3107.2 L 349.372,-3106.77 L 345.474,-3106.25 L 341.654,-3105.61 L 337.861,-3104.77 L 334.145,-3103.85 L 330.507,-3102.78 L 326.895,-3101.54 L 323.465,-3100.14 L 320.061,-3098.66 L 316.735,-3097.03 L 313.564,-3095.27 L 310.55,-3093.4 L 307.588,-3091.44 L 304.807,-3089.37 L 302.209,-3087.13 L 299.688,-3084.82 L 297.35,-3082.5 L 295.219,-3080.03 L 293.192,-3077.44 L 291.399,-3074.84 L 289.762,-3072.17 L 288.255,-3069.41 L 287.007,-3066.62 L 285.942,-3063.75 L 285.006,-3060.87 L 284.331,-3058 L 283.837,-3055.01 L 283.525,-3052.13 L 283.447,-3049.14 L 283.447,-3049.14 L 283.525,-3046.23 L 283.837,-3043.28 L 284.331,-3040.36 L 285.006,-3037.41 L 285.942,-3034.54 L 287.007,-3031.7 L 288.255,-3028.95 L 289.762,-3026.16 L 291.399,-3023.44 L 293.192,-3020.85 L 295.219,-3018.33 L 297.35,-3015.86 L 299.688,-3013.47 L 302.209,-3011.19 L 304.807,-3009 L 307.588,-3006.88 L 310.55,-3004.89 L 313.564,-3003.01 L 316.735,-3001.26 L 320.061,-2999.7 L 323.465,-2998.14 L 326.895,-2996.83 L 330.507,-2995.59 L 334.145,-2994.47 L 337.861,-2993.51 L 341.654,-2992.72 L 345.474,-2992.04 L 349.372,-2991.52 L 353.27,-2991.16 L 357.194,-2990.88 L 361.117,-2990.84 L 361.117,-2990.84 L 365.093,-2990.88 L 369.017,-2991.16 L 372.915,-2991.52 L 376.786,-2992.04 L 380.606,-2992.72 L 384.4,-2993.51 L 388.142,-2994.47 L 391.78,-2995.59 L 395.34,-2996.83 L 398.822,-2998.14 L 402.226,-2999.7 L 405.526,-3001.26 L 408.67,-3003.01 L 411.737,-3004.89 L 414.673,-3006.88 L 417.427,-3009 L 420.078,-3011.19 L 422.573,-3013.47 L 424.911,-3015.86 L 427.068,-3018.33 L 429.095,-3020.85 L 430.914,-3023.44 L 432.525,-3026.16 L 434.006,-3028.95 L 435.279,-3031.7 L 436.371,-3034.54 L 437.254,-3037.41 L 437.93,-3040.36 L 438.424,-3043.28 L 438.735,-3046.23 L 438.839,-3049.14z"/>
    <path style="fill: #b6c7c9" d="M 374.5 -3114.47 L 425.925,-3124.52 L 425.275,-3126.72 L 424.469,-3128.95 L 423.586,-3131.15 L 422.521,-3133.26 L 421.377,-3135.3 L 420.078,-3137.37 L 418.727,-3139.33 L 417.168,-3141.2 L 415.583,-3143.04 L 413.867,-3144.8 L 412.023,-3146.47 L 410.1,-3148.03 L 408.073,-3149.54 L 405.968,-3151.02 L 403.785,-3152.34 L 401.524,-3153.54 L 399.238,-3154.73 L 396.821,-3155.73 L 394.379,-3156.65 L 391.91,-3157.49 L 389.337,-3158.2 L 386.765,-3158.76 L 384.166,-3159.28 L 381.542,-3159.64 L 378.891,-3159.88 L 376.215,-3160 L 373.564,-3160 L 370.888,-3159.88 L 368.211,-3159.72 L 365.613,-3159.4 L 362.988,-3158.88 L 360.39,-3158.36 L 357.817,-3157.65 L 355.297,-3156.89 L 352.854,-3156.01 L 350.463,-3155.01 L 348.099,-3153.89 L 345.812,-3152.74 L 343.655,-3151.42 L 341.524,-3150.02 L 339.472,-3148.55 L 337.523,-3146.99 L 335.678,-3145.31 L 333.937,-3143.56 L 332.274,-3141.76 L 330.715,-3139.89 L 329.259,-3137.93 L 327.934,-3135.94 L 326.791,-3133.82 L 325.673,-3131.79 L 324.712,-3129.59 L 323.906,-3127.44 L 323.231,-3125.2 L 322.659,-3122.97 L 374.5,-3114.47z"/>
    <path style="fill: none; fill-opacity:0; stroke-width: 0.02; stroke: #6c8f93" d="M 425.925 -3124.6 L 425.249,-3126.84 L 424.469,-3129.03 L 423.56,-3131.23 L 422.521,-3133.3 L 421.325,-3135.38 L 420.052,-3137.41 L 418.675,-3139.37 L 417.116,-3141.24 L 415.505,-3143.04 L 413.841,-3144.8 L 411.971,-3146.55 L 410.1,-3148.11 L 408.047,-3149.62 L 405.942,-3151.02 L 403.785,-3152.42 L 401.524,-3153.62 L 399.212,-3154.73 L 396.795,-3155.77 L 394.353,-3156.65 L 391.91,-3157.49 L 389.337,-3158.2 L 386.739,-3158.76 L 384.14,-3159.28 L 381.516,-3159.64 L 378.891,-3159.88 L 376.189,-3160 L 373.538,-3160 L 370.888,-3159.88 L 368.237,-3159.72 L 365.587,-3159.4 L 362.988,-3158.88 L 360.39,-3158.4 L 357.843,-3157.73 L 355.349,-3156.89 L 352.854,-3156.01 L 350.489,-3155.01 L 348.125,-3153.89 L 345.864,-3152.74 L 343.655,-3151.46 L 341.55,-3150.02 L 339.498,-3148.55 L 337.549,-3147.03 L 335.704,-3145.35 L 333.937,-3143.64 L 332.274,-3141.8 L 330.715,-3139.93 L 329.311,-3138.01 L 327.96,-3135.94 L 326.791,-3133.94 L 325.699,-3131.83 L 324.764,-3129.71 L 323.906,-3127.52 L 323.231,-3125.28 L 322.685,-3123.05"/>
    <path style="fill: #b6c7c9" d="M 304.573 -3090.8 L 330.507,-3125.72 L 328.896,-3127.16 L 327.207,-3128.51 L 325.492,-3129.71 L 323.725,-3130.91 L 321.932,-3131.95 L 320.061,-3132.9 L 318.138,-3133.7 L 316.241,-3134.46 L 314.24,-3135.06 L 312.265,-3135.58 L 310.238,-3135.94 L 308.211,-3136.22 L 306.184,-3136.38 L 304.158,-3136.38 L 302.105,-3136.3 L 300.078,-3136.06 L 298.051,-3135.78 L 296.05,-3135.34 L 294.075,-3134.78 L 292.126,-3134.14 L 290.178,-3133.38 L 288.307,-3132.5 L 286.436,-3131.51 L 284.643,-3130.43 L 282.902,-3129.23 L 281.239,-3127.92 L 279.576,-3126.52 L 278.016,-3125.08 L 276.535,-3123.49 L 275.08,-3121.85 L 273.729,-3120.09 L 272.482,-3118.34 L 271.286,-3116.42 L 270.195,-3114.51 L 269.155,-3112.51 L 268.246,-3110.44 L 267.388,-3108.32 L 266.661,-3106.21 L 266.011,-3104.01 L 265.492,-3101.78 L 265.076,-3099.54 L 264.712,-3097.23 L 264.452,-3094.91 L 264.348,-3092.64 L 264.296,-3090.36 L 264.374,-3088.05 L 264.53,-3085.7 L 264.842,-3083.46 L 304.573,-3090.8z"/>
    <path style="fill: none; fill-opacity:0; stroke-width: 0.02; stroke: #6c8f93" d="M 330.377 -3125.84 L 328.766,-3127.28 L 327.129,-3128.59 L 325.414,-3129.83 L 323.621,-3130.95 L 321.776,-3132.03 L 319.931,-3132.94 L 318.034,-3133.78 L 316.085,-3134.5 L 314.136,-3135.06 L 312.109,-3135.58 L 310.108,-3135.94 L 308.107,-3136.22 L 306.081,-3136.38 L 304.002,-3136.38 L 302.027,-3136.3 L 300,-3136.06 L 297.921,-3135.78 L 295.946,-3135.3 L 293.997,-3134.78 L 291.997,-3134.06 L 290.1,-3133.34 L 288.229,-3132.43 L 286.384,-3131.43 L 284.565,-3130.35 L 282.824,-3129.15 L 281.161,-3127.84 L 279.55,-3126.48 L 277.99,-3124.96 L 276.457,-3123.45 L 275.08,-3121.73 L 273.703,-3120.05 L 272.43,-3118.22 L 271.26,-3116.38 L 270.143,-3114.47 L 269.155,-3112.43 L 268.246,-3110.36 L 267.388,-3108.24 L 266.635,-3106.13 L 266.011,-3103.89 L 265.492,-3101.74 L 265.024,-3099.46 L 264.712,-3097.15 L 264.452,-3094.87 L 264.348,-3092.6 L 264.296,-3090.28 L 264.426,-3088.01 L 264.582,-3085.7 L 264.842,-3083.38"/>
    <path style="fill: #b6c7c9" d="M 297.35 -3009.24 L 255.617,-3010.47 L 255.617,-3008.36 L 255.695,-3006.36 L 255.903,-3004.25 L 256.241,-3002.25 L 256.631,-3000.22 L 257.124,-2998.14 L 257.774,-2996.23 L 258.45,-2994.27 L 259.307,-2992.36 L 260.217,-2990.52 L 261.178,-2988.65 L 262.321,-2986.89 L 263.465,-2985.17 L 264.764,-2983.54 L 266.089,-2981.94 L 267.518,-2980.42 L 269.052,-2979.03 L 270.611,-2977.67 L 272.248,-2976.31 L 273.963,-2975.16 L 275.73,-2974.04 L 277.575,-2972.96 L 279.446,-2972.08 L 281.317,-2971.21 L 283.291,-2970.45 L 285.292,-2969.81 L 287.319,-2969.29 L 289.372,-2968.81 L 291.425,-2968.45 L 293.504,-2968.21 L 295.608,-2968.09 L 297.739,-2968.09 L 299.792,-2968.17 L 301.897,-2968.33 L 303.976,-2968.57 L 306.029,-2968.93 L 308.107,-2969.45 L 310.082,-2970.05 L 312.109,-2970.69 L 314.006,-2971.53 L 315.929,-2972.32 L 317.8,-2973.32 L 319.567,-2974.4 L 321.36,-2975.56 L 322.997,-2976.79 L 324.634,-2978.07 L 297.35,-3009.24z"/>
    <path style="fill: none; fill-opacity:0; stroke-width: 0.02; stroke: #6c8f93" d="M 255.669 -3010.47 L 255.591,-3008.44 L 255.747,-3006.36 L 255.903,-3004.33 L 256.241,-3002.25 L 256.631,-3000.26 L 257.15,-2998.22 L 257.774,-2996.23 L 258.502,-2994.27 L 259.307,-2992.4 L 260.165,-2990.52 L 261.178,-2988.72 L 262.243,-2986.93 L 263.465,-2985.25 L 264.712,-2983.54 L 266.063,-2982.02 L 267.466,-2980.5 L 268.974,-2979.03 L 270.533,-2977.67 L 272.17,-2976.39 L 273.885,-2975.2 L 275.652,-2974.08 L 277.445,-2973.04 L 279.316,-2972.08 L 281.265,-2971.21 L 283.188,-2970.53 L 285.162,-2969.89 L 287.189,-2969.29 L 289.268,-2968.89 L 291.321,-2968.45 L 293.374,-2968.29 L 295.479,-2968.09 L 297.583,-2968.09 L 299.662,-2968.09 L 301.741,-2968.29 L 303.82,-2968.57 L 305.873,-2968.93 L 307.951,-2969.41 L 309.926,-2969.97 L 311.953,-2970.65 L 313.876,-2971.45 L 315.747,-2972.32 L 317.618,-2973.28 L 319.411,-2974.32 L 321.204,-2975.44 L 322.893,-2976.67 L 324.478,-2977.95"/>
    <path style="fill: #b6c7c9" d="M 430.134 -3098.23 L 466.851,-3086.69 L 467.475,-3088.41 L 467.943,-3090.13 L 468.385,-3091.88 L 468.644,-3093.68 L 468.904,-3095.47 L 468.956,-3097.27 L 468.956,-3099.1 L 468.904,-3100.86 L 468.696,-3102.66 L 468.411,-3104.45 L 467.995,-3106.21 L 467.501,-3107.96 L 466.929,-3109.64 L 466.254,-3111.35 L 465.474,-3112.99 L 464.591,-3114.63 L 463.603,-3116.22 L 462.59,-3117.74 L 461.472,-3119.22 L 460.277,-3120.61 L 459.004,-3122.05 L 457.601,-3123.33 L 456.197,-3124.56 L 454.664,-3125.72 L 453.131,-3126.84 L 451.52,-3127.84 L 449.857,-3128.83 L 448.116,-3129.71 L 446.349,-3130.51 L 444.53,-3131.23 L 442.659,-3131.83 L 440.814,-3132.35 L 438.865,-3132.82 L 436.942,-3133.18 L 434.994,-3133.46 L 433.019,-3133.58 L 431.07,-3133.7 L 429.121,-3133.7 L 427.146,-3133.58 L 425.171,-3133.42 L 423.248,-3133.14 L 421.299,-3132.78 L 419.376,-3132.35 L 417.479,-3131.79 L 430.134,-3098.23z"/>
    <path style="fill: none; fill-opacity:0; stroke-width: 0.02; stroke: #6c8f93" d="M 463.473 -3080.19 L 466.825,-3086.61 L 467.449,-3088.29 L 467.943,-3090.05 L 468.333,-3091.8 L 468.644,-3093.6 L 468.852,-3095.39 L 468.93,-3097.15 L 468.956,-3099.02 L 468.878,-3100.78 L 468.696,-3102.58 L 468.411,-3104.37 L 467.995,-3106.13 L 467.501,-3107.88 L 466.955,-3109.6 L 466.28,-3111.24 L 465.474,-3112.95 L 464.591,-3114.59 L 463.681,-3116.18 L 462.616,-3117.7 L 461.498,-3119.18 L 460.303,-3120.61 L 459.03,-3121.97 L 457.679,-3123.25 L 456.249,-3124.52 L 454.768,-3125.72 L 453.183,-3126.8 L 451.572,-3127.84 L 449.909,-3128.79 L 448.168,-3129.59 L 446.401,-3130.43 L 444.608,-3131.19 L 442.763,-3131.83 L 440.866,-3132.35 L 438.995,-3132.82 L 437.072,-3133.18 L 435.123,-3133.42 L 433.149,-3133.58 L 431.174,-3133.7 L 429.173,-3133.7 L 427.224,-3133.58 L 425.249,-3133.42 L 423.3,-3133.18 L 421.377,-3132.82 L 419.48,-3132.39 L 417.583,-3131.83"/>
    <path style="fill: #b6c7c9" d="M 435.357 -3051.34 L 476.7,-3036.73 L 477.531,-3038.65 L 478.207,-3040.52 L 478.831,-3042.52 L 479.324,-3044.51 L 479.662,-3046.51 L 479.896,-3048.5 L 479.974,-3050.58 L 479.974,-3052.61 L 479.818,-3054.65 L 479.584,-3056.64 L 479.168,-3058.68 L 478.675,-3060.63 L 478.025,-3062.59 L 477.324,-3064.55 L 476.44,-3066.42 L 475.453,-3068.22 L 474.387,-3070.05 L 473.166,-3071.85 L 471.867,-3073.52 L 435.357,-3051.34z"/>
    <path style="fill: none; fill-opacity:0; stroke-width: 0.02; stroke: #6c8f93" d="M 471.451 -3030.11 L 476.648,-3036.65 L 477.427,-3038.53 L 478.207,-3040.52 L 478.805,-3042.48 L 479.298,-3044.51 L 479.636,-3046.51 L 479.896,-3048.5 L 480,-3050.58 L 479.974,-3052.61 L 479.818,-3054.69 L 479.532,-3056.68 L 479.168,-3058.68 L 478.675,-3060.67 L 478.025,-3062.67 L 477.298,-3064.63 L 476.388,-3066.54 L 475.427,-3068.34 L 474.283,-3070.17 L 473.114,-3071.93 L 471.789,-3073.6 L 463.473,-3080.19"/>
    <path style="fill: #b6c7c9" d="M 433.616 -3012.79 L 420.572,-2957.36 L 422.495,-2956.48 L 424.443,-2955.68 L 426.392,-2955.08 L 428.419,-2954.61 L 430.394,-2954.25 L 432.369,-2954.09 L 434.422,-2954.09 L 436.423,-2954.25 L 438.398,-2954.49 L 440.398,-2954.96 L 442.347,-2955.56 L 444.296,-2956.24 L 446.219,-2957.12 L 448.116,-2958.2 L 449.935,-2959.35 L 451.754,-2960.67 L 453.521,-2962.11 L 455.236,-2963.7 L 456.899,-2965.34 L 458.484,-2967.22 L 459.991,-2969.17 L 461.447,-2971.21 L 462.85,-2973.4 L 464.175,-2975.68 L 465.37,-2978.03 L 466.514,-2980.5 L 467.605,-2983.02 L 468.566,-2985.65 L 469.424,-2988.29 L 470.23,-2991.04 L 470.905,-2993.87 L 471.529,-2996.75 L 472.023,-2999.62 L 472.438,-3002.57 L 472.698,-3005.49 L 472.932,-3008.48 L 472.984,-3011.47 L 472.984,-3014.46 L 472.88,-3017.46 L 472.672,-3020.45 L 472.36,-3023.4 L 471.971,-3026.32 L 471.451,-3029.19 L 433.616,-3012.79z"/>
    <path style="fill: none; fill-opacity:0; stroke-width: 0.02; stroke: #6c8f93" d="M 420.676 -2957.32 L 422.625,-2956.36 L 424.547,-2955.6 L 426.522,-2954.96 L 428.497,-2954.57 L 430.524,-2954.25 L 432.499,-2954.09 L 434.5,-2954.01 L 436.501,-2954.25 L 438.528,-2954.49 L 440.502,-2954.96 L 442.451,-2955.56 L 444.4,-2956.32 L 446.323,-2957.2 L 448.194,-2958.24 L 450.065,-2959.43 L 451.858,-2960.71 L 453.599,-2962.11 L 455.288,-2963.7 L 456.951,-2965.46 L 458.536,-2967.3 L 460.043,-2969.29 L 461.498,-2971.33 L 462.902,-2973.44 L 464.201,-2975.76 L 465.448,-2978.15 L 466.54,-2980.54 L 467.631,-2983.14 L 468.592,-2985.77 L 469.45,-2988.41 L 470.23,-2991.16 L 470.931,-2994.03 L 471.555,-2996.87 L 472.023,-2999.78 L 472.438,-3002.69 L 472.75,-3005.6 L 472.932,-3008.6 L 472.984,-3011.59 L 472.984,-3014.58 L 472.854,-3017.58 L 472.672,-3020.57 L 472.334,-3023.52 L 471.893,-3026.44 L 471.451,-3029.31"/>
    <path style="fill: #b6c7c9" d="M 268.35 -3044.27 L 266.375,-3081.9 L 264.92,-3081.71 L 263.543,-3081.47 L 262.087,-3081.07 L 260.684,-3080.59 L 259.307,-3080.03 L 257.956,-3079.31 L 256.631,-3078.63 L 255.331,-3077.71 L 254.032,-3076.84 L 252.811,-3075.84 L 251.615,-3074.72 L 250.472,-3073.56 L 249.355,-3072.33 L 248.341,-3070.97 L 247.328,-3069.61 L 246.392,-3068.18 L 245.509,-3066.66 L 244.703,-3065.06 L 243.898,-3063.47 L 243.196,-3061.75 L 242.599,-3060 L 242.027,-3058.24 L 241.481,-3056.48 L 241.065,-3054.65 L 240.728,-3052.77 L 240.416,-3050.9 L 240.182,-3048.98 L 240.078,-3047.03 L 240,-3045.15 L 240,-3043.24 L 240.078,-3041.36 L 240.234,-3039.41 L 240.468,-3037.53 L 240.728,-3035.65 L 241.117,-3033.78 L 241.533,-3031.94 L 242.053,-3030.15 L 242.625,-3028.39 L 243.274,-3026.68 L 243.976,-3024.96 L 244.781,-3023.4 L 245.587,-3021.81 L 246.496,-3020.29 L 247.458,-3018.85 L 248.445,-3017.46 L 249.511,-3016.18 L 250.628,-3014.94 L 251.771,-3013.75 L 252.993,-3012.67 L 254.188,-3011.67 L 255.487,-3010.75 L 268.35,-3044.27z"/>
    <path style="fill: none; fill-opacity:0; stroke-width: 0.02; stroke: #6c8f93" d="M 266.375 -3081.9 L 264.998,-3081.71 L 263.569,-3081.47 L 262.165,-3081.07 L 260.814,-3080.63 L 259.437,-3080.07 L 258.086,-3079.47 L 256.786,-3078.71 L 255.513,-3077.91 L 254.24,-3077.04 L 253.071,-3076.04 L 251.849,-3074.96 L 250.732,-3073.84 L 249.641,-3072.65 L 248.601,-3071.33 L 247.562,-3069.97 L 246.652,-3068.62 L 245.743,-3067.1 L 244.937,-3065.58 L 244.158,-3063.99 L 243.482,-3062.35 L 242.832,-3060.67 L 242.209,-3059 L 241.689,-3057.24 L 241.221,-3055.45 L 240.832,-3053.61 L 240.546,-3051.78 L 240.26,-3049.9 L 240.104,-3048.02 L 240,-3046.15 L 240,-3044.27 L 240,-3042.4 L 240.156,-3040.52 L 240.312,-3038.65 L 240.546,-3036.77 L 240.883,-3034.94 L 241.221,-3033.14 L 241.689,-3031.38 L 242.261,-3029.55 L 242.832,-3027.83 L 243.482,-3026.2 L 244.21,-3024.56 L 244.963,-3022.96 L 245.769,-3021.45 L 246.652,-3019.97 L 247.614,-3018.57 L 248.627,-3017.22 L 249.667,-3015.94 L 250.784,-3014.74 L 251.875,-3013.59 L 253.071,-3012.55 L 254.292,-3011.59 L 255.539,-3010.67"/>
    <path style="fill: #b6c7c9" d="M 373.616 -2983.86 L 314.474,-2979.51 L 314.864,-2977.31 L 315.357,-2975.08 L 316.033,-2972.92 L 316.89,-2970.81 L 317.8,-2968.77 L 318.917,-2966.7 L 320.139,-2964.7 L 321.516,-2962.71 L 323.049,-2960.83 L 324.686,-2958.96 L 326.401,-2957.2 L 328.298,-2955.48 L 330.273,-2953.85 L 332.378,-2952.25 L 334.586,-2950.81 L 336.873,-2949.38 L 339.316,-2948.1 L 341.758,-2946.82 L 344.331,-2945.71 L 346.955,-2944.63 L 349.71,-2943.75 L 352.464,-2942.87 L 355.245,-2942.15 L 358.155,-2941.52 L 361.065,-2941 L 364.002,-2940.6 L 366.912,-2940.28 L 369.9,-2940.12 L 372.915,-2940 L 375.877,-2940 L 378.891,-2940.16 L 381.854,-2940.4 L 384.79,-2940.76 L 387.7,-2941.28 L 390.611,-2941.84 L 393.417,-2942.51 L 396.223,-2943.35 L 398.952,-2944.15 L 401.654,-2945.15 L 404.253,-2946.27 L 406.748,-2947.46 L 409.19,-2948.74 L 411.555,-2950.14 L 413.816,-2951.57 L 415.972,-2953.09 L 417.973,-2954.69 L 419.922,-2956.36 L 421.715,-2958.12 L 423.43,-2959.95 L 425.015,-2961.83 L 426.418,-2963.7 L 427.718,-2965.7 L 428.913,-2967.77 L 429.926,-2969.81 L 373.616,-2983.86z"/>
    <path style="fill: none; fill-opacity:0; stroke-width: 0.02; stroke: #6c8f93" d="M 314.526 -2979.43 L 314.864,-2977.27 L 315.383,-2975.08 L 316.033,-2972.92 L 316.89,-2970.81 L 317.852,-2968.69 L 318.917,-2966.7 L 320.165,-2964.7 L 321.516,-2962.71 L 323.049,-2960.83 L 324.686,-2958.96 L 326.401,-2957.2 L 328.298,-2955.48 L 330.325,-2953.85 L 332.378,-2952.25 L 334.586,-2950.81 L 336.873,-2949.38 L 339.316,-2948.1 L 341.758,-2946.86 L 344.331,-2945.71 L 346.955,-2944.63 L 349.658,-2943.75 L 352.412,-2942.87 L 355.219,-2942.15 L 358.129,-2941.52 L 361.013,-2941 L 363.95,-2940.64 L 366.886,-2940.28 L 369.848,-2940.12 L 372.837,-2940 L 375.825,-2940.04 L 378.787,-2940.16 L 381.75,-2940.48 L 384.738,-2940.76 L 387.648,-2941.28 L 390.507,-2941.88 L 393.365,-2942.51 L 396.146,-2943.27 L 398.874,-2944.15 L 401.55,-2945.15 L 404.123,-2946.27 L 406.67,-2947.46 L 409.112,-2948.7 L 411.451,-2950.02 L 413.712,-2951.49 L 415.842,-2953.01 L 417.921,-2954.61 L 419.844,-2956.36 L 421.663,-2958.08 L 423.378,-2959.91 L 424.911,-2961.71 L 426.366,-2963.7 L 427.666,-2965.66 L 428.809,-2967.69 L 429.874,-2969.77"/>
  </g>
  <g>
    <polyline style="fill: none; fill-opacity:0; stroke-width: 2; stroke: #000000" points="370.7,-3139.99 370.7,-3157.5 370.7,-3157.5 370.7,-3164 "/>
    <polyline style="fill: none; fill-opacity:0; stroke-width: 2; stroke: #000000" points="375.7,-3139.99 375.7,-3162.5 375.7,-3162.5 375.7,-3164 "/>
  </g>
  <polyline style="fill: none; fill-opacity:0; stroke-width: 2; stroke: #000000" points="39.6,-3324 39.6,-3302 112.8,-3302 112.8,-3280 "/>
  <polyline style="fill: none; fill-opacity:0; stroke-width: 2; stroke: #000000" points="112.8,-3240.64 112.8,-3220.82 112.791,-3220.82 112.791,-3201.01 "/>
  <polyline style="fill: none; fill-opacity:0; stroke-width: 2; stroke: #000000" points="112.791,-3162.99 112.791,-3141.5 112.8,-3141.5 112.8,-3120 "/>
  <polyline style="fill: none; fill-opacity:0; stroke-width: 2; stroke: #000000" points="38,-3039.01 38,-3059.82 112.8,-3059.82 112.8,-3080.64 "/>
  <polyline style="fill: none; fill-opacity:0; stroke-width: 2; stroke: #000000" points="159.796,-3182 160.796,-3182 197.994,-3182 198.994,-3182 "/>
  <g>
    <polyline style="fill: none; fill-opacity:0; stroke-width: 2; stroke: #000000" points="293.006,-3184.5 294.006,-3184.5 334,-3184.5 340,-3184.5 "/>
    <polyline style="fill: none; fill-opacity:0; stroke-width: 2; stroke: #000000" points="293.006,-3179.5 299.006,-3179.5 339,-3179.5 340,-3179.5 "/>
  </g>
  <g>
    <polyline style="fill: none; fill-opacity:0; stroke-width: 2; stroke: #000000" points="407.408,-3124.49 441.204,-3124.49 441.204,-3124.5 480,-3124.5 "/>
    <polyline style="fill: none; fill-opacity:0; stroke-width: 2; stroke: #000000" points="407.408,-3119.49 446.204,-3119.49 446.204,-3119.5 480,-3119.5 "/>
  </g>
  <polyline style="fill: none; fill-opacity:0; stroke-width: 2; stroke: #000000" points="559.2,-3122 620,-3122 620,-3122 646.619,-3122 "/>
  <polyline style="fill: none; fill-opacity:0; stroke-width: 2; stroke: #000000" points="692.8,-3020.64 692.8,-3000.82 692.783,-3000.82 692.783,-2981.01 "/>
  <polyline style="fill: none; fill-opacity:0; stroke-width: 2; stroke: #000000" points="692.8,-3061 692.8,-3082 692.619,-3082 692.619,-3102.99 "/>
  <polyline style="fill: none; fill-opacity:0; stroke-width: 2; stroke: #000000" points="692.701,-3322.99 692.701,-3282 692.8,-3282 692.8,-3241 "/>
  <polyline style="fill: none; fill-opacity:0; stroke-width: 2; stroke: #000000" points="692.8,-3199.64 692.8,-3170.32 692.619,-3170.32 692.619,-3141.01 "/>
  <g>
    <rect style="fill: #ffffff" x="340" y="-3139.99" width="66.4" height="36"/>
    <rect style="fill: none; fill-opacity:0; stroke-width: 2; stroke: #000000" x="340" y="-3139.99" width="66.4" height="36"/>
    <rect style="fill: none; fill-opacity:0; stroke-width: 2; stroke: #000000" x="345" y="-3134.99" width="56.4" height="26"/>
    <text font-size="12.7998" style="fill: #000000;text-anchor:middle;font-family:monospace;font-style:normal;font-weight:normal" x="373.2" y="-3117.99">互联网</text>
  </g>
  <g>
    <rect style="fill: #ffffff" x="340" y="-3200" width="66.4" height="36"/>
    <rect style="fill: none; fill-opacity:0; stroke-width: 2; stroke: #000000" x="340" y="-3200" width="66.4" height="36"/>
    <text font-size="12.7998" style="fill: #000000;text-anchor:middle;font-family:monospace;font-style:normal;font-weight:normal" x="373.2" y="-3178">路由器</text>
  </g>
  <g>
    <g>
      <rect style="fill: #ffffff" x="200" y="-3200" width="92" height="36"/>
      <rect style="fill: none; fill-opacity:0; stroke-width: 2; stroke: #000000" x="200" y="-3200" width="92" height="36"/>
      <text font-size="12.7998" style="fill: #000000;text-anchor:middle;font-family:monospace;font-style:normal;font-weight:normal" x="246" y="-3178">客户端设备</text>
    </g>
    <g>
      <g>
        <rect style="fill: #ffffff" x="66.7905" y="-3200" width="92" height="36"/>
        <rect style="fill: none; fill-opacity:0; stroke-width: 2; stroke: #000000" x="66.7905" y="-3200" width="92" height="36"/>
        <rect style="fill: none; fill-opacity:0; stroke-width: 2; stroke: #000000" x="71.7905" y="-3195" width="82" height="26"/>
        <text font-size="12.7998" style="fill: #000000;text-anchor:middle;font-family:monospace;font-style:normal;font-weight:normal" x="112.791" y="-3178">客户端用户</text>
      </g>
      <g>
        <rect style="fill: #ffffff" x="0" y="-3360" width="79.2" height="36"/>
        <rect style="fill: none; fill-opacity:0; stroke-width: 2; stroke: #000000" x="0" y="-3360" width="79.2" height="36"/>
        <text font-size="12.7998" style="fill: #000000;text-anchor:middle;font-family:monospace;font-style:normal;font-weight:normal" x="39.6" y="-3338">普通用户</text>
      </g>
      <g>
        <rect style="fill: #ffffff" x="0" y="-3038" width="76" height="40"/>
        <rect style="fill: none; fill-opacity:0; stroke-width: 2; stroke: #000000" x="0" y="-3038" width="76" height="40"/>
        <text font-size="15.9998" style="fill: #000000;text-anchor:middle;font-family:monospace;font-style:normal;font-weight:normal" x="38" y="-3013">管理员</text>
      </g>
      <g>
        <polygon style="fill: #ffffff" points="80,-3260.32 112.8,-3280 145.6,-3260.32 112.8,-3240.64 "/>
        <polygon style="fill: none; fill-opacity:0; stroke-width: 2; stroke: #000000" points="80,-3260.32 112.8,-3280 145.6,-3260.32 112.8,-3240.64 "/>
        <text font-size="12.7998" style="fill: #000000;text-anchor:start;font-family:monospace;font-style:normal;font-weight:normal" x="116.8" y="-3286">细分角色</text>
        <text font-size="12.7998" style="fill: #000000;text-anchor:start;font-family:monospace;font-style:normal;font-weight:normal" x="116.8" y="-3218.64">概念角色</text>
        <text font-size="12.7998" style="fill: #000000;text-anchor:middle;font-family:monospace;font-style:normal;font-weight:normal" x="112.8" y="-3256.32">继承</text>
      </g>
      <g>
        <polygon style="fill: #ffffff" points="80,-3100.32 112.8,-3120 145.6,-3100.32 112.8,-3080.64 "/>
        <polygon style="fill: none; fill-opacity:0; stroke-width: 2; stroke: #000000" points="80,-3100.32 112.8,-3120 145.6,-3100.32 112.8,-3080.64 "/>
        <text font-size="12.7998" style="fill: #000000;text-anchor:start;font-family:monospace;font-style:normal;font-weight:normal" x="116.8" y="-3126">概念角色</text>
        <text font-size="12.7998" style="fill: #000000;text-anchor:start;font-family:monospace;font-style:normal;font-weight:normal" x="116.8" y="-3058.64">细分角色</text>
        <text font-size="12.7998" style="fill: #000000;text-anchor:middle;font-family:monospace;font-style:normal;font-weight:normal" x="112.8" y="-3096.32">继承</text>
      </g>
    </g>
  </g>
  <g>
    <g>
      <rect style="fill: #ffffff" x="646.619" y="-3140" width="92" height="36"/>
      <rect style="fill: none; fill-opacity:0; stroke-width: 2; stroke: #000000" x="646.619" y="-3140" width="92" height="36"/>
      <rect style="fill: none; fill-opacity:0; stroke-width: 2; stroke: #000000" x="651.619" y="-3135" width="82" height="26"/>
      <text font-size="12.7998" style="fill: #000000;text-anchor:middle;font-family:monospace;font-style:normal;font-weight:normal" x="692.619" y="-3118">服务端用户</text>
    </g>
    <g>
      <polygon style="fill: #ffffff" points="660,-3040.32 692.8,-3060 725.6,-3040.32 692.8,-3020.64 "/>
      <polygon style="fill: none; fill-opacity:0; stroke-width: 2; stroke: #000000" points="660,-3040.32 692.8,-3060 725.6,-3040.32 692.8,-3020.64 "/>
      <text font-size="12.7998" style="fill: #000000;text-anchor:start;font-family:monospace;font-style:normal;font-weight:normal" x="696.8" y="-3066">概念角色</text>
      <text font-size="12.7998" style="fill: #000000;text-anchor:start;font-family:monospace;font-style:normal;font-weight:normal" x="696.8" y="-2998.64">细分角色</text>
      <text font-size="12.7998" style="fill: #000000;text-anchor:middle;font-family:monospace;font-style:normal;font-weight:normal" x="692.8" y="-3036.32">继承</text>
    </g>
    <g>
      <rect style="fill: #ffffff" x="665.983" y="-2980" width="53.6" height="36"/>
      <rect style="fill: none; fill-opacity:0; stroke-width: 2; stroke: #000000" x="665.983" y="-2980" width="53.6" height="36"/>
      <text font-size="12.7998" style="fill: #000000;text-anchor:middle;font-family:monospace;font-style:normal;font-weight:normal" x="692.783" y="-2958">用户</text>
    </g>
    <g>
      <rect style="fill: #ffffff" x="659.501" y="-3360" width="66.4" height="36"/>
      <rect style="fill: none; fill-opacity:0; stroke-width: 2; stroke: #000000" x="659.501" y="-3360" width="66.4" height="36"/>
      <text font-size="12.7998" style="fill: #000000;text-anchor:middle;font-family:monospace;font-style:normal;font-weight:normal" x="692.701" y="-3338">管理员</text>
    </g>
    <g>
      <polygon style="fill: #ffffff" points="660,-3220.32 692.8,-3240 725.6,-3220.32 692.8,-3200.64 "/>
      <polygon style="fill: none; fill-opacity:0; stroke-width: 2; stroke: #000000" points="660,-3220.32 692.8,-3240 725.6,-3220.32 692.8,-3200.64 "/>
      <text font-size="12.7998" style="fill: #000000;text-anchor:start;font-family:monospace;font-style:normal;font-weight:normal" x="696.8" y="-3246">细分角色</text>
      <text font-size="12.7998" style="fill: #000000;text-anchor:start;font-family:monospace;font-style:normal;font-weight:normal" x="696.8" y="-3178.64">概念角色</text>
      <text font-size="12.7998" style="fill: #000000;text-anchor:middle;font-family:monospace;font-style:normal;font-weight:normal" x="692.8" y="-3216.32">继承</text>
    </g>
  </g>
  <polyline style="fill: none; fill-opacity:0; stroke-width: 2; stroke: #000000" points="459.2,-3342 520,-3342 520,-3260 519.366,-3260 "/>
  <polyline style="fill: none; fill-opacity:0; stroke-width: 2; stroke: #000000" points="519.366,-3220.64 519.366,-3180.82 519.6,-3180.82 519.6,-3141.01 "/>
  <polyline style="fill: none; fill-opacity:0; stroke-width: 2; stroke: #000000" points="519.366,-3260 520,-3260 520,-3282 460.204,-3282 "/>
  <polyline style="fill: none; fill-opacity:0; stroke-width: 2; stroke: #000000" points="407.364,-3022 600,-3022 600,-3107.56 647.508,-3107.56 "/>
  <g>
    <rect style="fill: #ffffff" x="340" y="-3040" width="66.4" height="36"/>
    <rect style="fill: none; fill-opacity:0; stroke-width: 2; stroke: #000000" x="340" y="-3040" width="66.4" height="36"/>
    <rect style="fill: none; fill-opacity:0; stroke-width: 2; stroke: #000000" x="345" y="-3035" width="56.4" height="26"/>
    <text font-size="12.7998" style="fill: #000000;text-anchor:middle;font-family:monospace;font-style:normal;font-weight:normal" x="373.2" y="-3018">互联网</text>
  </g>
  <g>
    <polyline style="fill: none; fill-opacity:0; stroke-width: 2; stroke: #000000" points="522.1,-3102.99 522.1,-3069.5 375.7,-3069.5 375.7,-3041.01 "/>
    <polyline style="fill: none; fill-opacity:0; stroke-width: 2; stroke: #000000" points="517.1,-3102.99 517.1,-3074.5 370.7,-3074.5 370.7,-3041.01 "/>
  </g>
  <g>
    <g>
      <rect style="fill: #ffffff" x="480" y="-3140" width="79.2" height="36"/>
      <rect style="fill: none; fill-opacity:0; stroke-width: 2; stroke: #000000" x="480" y="-3140" width="79.2" height="36"/>
      <rect style="fill: none; fill-opacity:0; stroke-width: 2; stroke: #000000" x="485" y="-3135" width="69.2" height="26"/>
      <text font-size="12.8" style="fill: #000000;text-anchor:middle;font-family:monospace;font-style:normal;font-weight:normal" x="519.6" y="-3118">业务系统</text>
    </g>
    <g>
      <rect style="fill: #ffffff" x="380" y="-3360" width="79.2" height="36"/>
      <rect style="fill: none; fill-opacity:0; stroke-width: 2; stroke: #000000" x="380" y="-3360" width="79.2" height="36"/>
      <text font-size="12.7998" style="fill: #000000;text-anchor:middle;font-family:monospace;font-style:normal;font-weight:normal" x="419.6" y="-3338">验证系统</text>
    </g>
    <g>
      <rect style="fill: #ffffff" x="380" y="-3300" width="79.2" height="36"/>
      <rect style="fill: none; fill-opacity:0; stroke-width: 2; stroke: #000000" x="380" y="-3300" width="79.2" height="36"/>
      <text font-size="12.7998" style="fill: #000000;text-anchor:middle;font-family:monospace;font-style:normal;font-weight:normal" x="419.6" y="-3278">营销系统</text>
    </g>
    <g>
      <polygon style="fill: #ffffff" points="486.566,-3240.32 519.366,-3260 552.166,-3240.32 519.366,-3220.64 "/>
      <polygon style="fill: none; fill-opacity:0; stroke-width: 2; stroke: #000000" points="486.566,-3240.32 519.366,-3260 552.166,-3240.32 519.366,-3220.64 "/>
      <text font-size="12.7998" style="fill: #000000;text-anchor:start;font-family:monospace;font-style:normal;font-weight:normal" x="523.366" y="-3266">细分模块</text>
      <text font-size="12.7998" style="fill: #000000;text-anchor:start;font-family:monospace;font-style:normal;font-weight:normal" x="523.366" y="-3198.64">概念模块</text>
      <text font-size="12.7998" style="fill: #000000;text-anchor:middle;font-family:monospace;font-style:normal;font-weight:normal" x="519.366" y="-3236.32">子集</text>
    </g>
  </g>
</svg>
