<?xml version="1.0" encoding="UTF-8" standalone="no"?>
<!DOCTYPE svg PUBLIC "-//W3C//DTD SVG 1.0//EN" "http://www.w3.org/TR/2001/PR-SVG-20010719/DTD/svg10.dtd">
<svg width="46cm" height="24cm" viewBox="0 -3362 920 469" xmlns="http://www.w3.org/2000/svg" xmlns:xlink="http://www.w3.org/1999/xlink">
  <g>
    <path style="fill: #b6c7c9" d="M 418.747 -3106.23 L 418.688,-3108.89 L 418.481,-3111.55 L 418.098,-3114.17 L 417.566,-3116.79 L 416.858,-3119.45 L 416.061,-3122.02 L 415.057,-3124.54 L 413.935,-3127.02 L 412.725,-3129.49 L 411.308,-3131.83 L 409.803,-3134.16 L 408.15,-3136.36 L 406.349,-3138.56 L 404.46,-3140.61 L 402.452,-3142.62 L 400.297,-3144.49 L 398.084,-3146.31 L 395.781,-3147.99 L 393.36,-3149.58 L 390.851,-3151.03 L 388.254,-3152.43 L 385.567,-3153.6 L 382.881,-3154.77 L 380.077,-3155.75 L 377.213,-3156.64 L 374.35,-3157.38 L 371.427,-3157.99 L 368.476,-3158.41 L 365.494,-3158.79 L 362.483,-3158.97 L 359.472,-3159.07 L 359.472,-3159.07 L 356.491,-3158.97 L 353.45,-3158.79 L 350.498,-3158.41 L 347.546,-3157.99 L 344.594,-3157.38 L 341.731,-3156.64 L 338.868,-3155.75 L 336.093,-3154.77 L 333.347,-3153.6 L 330.72,-3152.43 L 328.122,-3151.03 L 325.643,-3149.58 L 323.193,-3147.99 L 320.89,-3146.31 L 318.647,-3144.49 L 316.492,-3142.62 L 314.484,-3140.61 L 312.595,-3138.56 L 310.795,-3136.36 L 309.141,-3134.16 L 307.636,-3131.83 L 306.249,-3129.49 L 304.979,-3127.02 L 303.916,-3124.54 L 302.913,-3122.02 L 302.086,-3119.45 L 301.378,-3116.79 L 300.906,-3114.17 L 300.522,-3111.55 L 300.256,-3108.89 L 300.227,-3106.23 L 300.227,-3106.23 L 300.256,-3103.52 L 300.522,-3100.85 L 300.906,-3098.19 L 301.378,-3095.57 L 302.086,-3092.96 L 302.913,-3090.39 L 303.916,-3087.87 L 304.979,-3085.34 L 306.249,-3082.91 L 307.636,-3080.58 L 309.141,-3078.24 L 310.795,-3076 L 312.595,-3073.85 L 314.484,-3071.8 L 316.492,-3069.79 L 318.647,-3067.87 L 320.89,-3066.14 L 323.193,-3064.37 L 325.643,-3062.78 L 328.122,-3061.33 L 330.72,-3060.02 L 333.347,-3058.76 L 336.093,-3057.64 L 338.868,-3056.66 L 341.731,-3055.77 L 344.594,-3055.02 L 347.546,-3054.46 L 350.498,-3054 L 353.45,-3053.57 L 356.491,-3053.43 L 359.472,-3053.39 L 359.472,-3053.39 L 362.483,-3053.43 L 365.494,-3053.57 L 368.476,-3054 L 371.427,-3054.46 L 374.35,-3055.02 L 377.213,-3055.77 L 380.077,-3056.66 L 382.881,-3057.64 L 385.567,-3058.76 L 388.254,-3060.02 L 390.851,-3061.33 L 393.36,-3062.78 L 395.781,-3064.37 L 398.084,-3066.14 L 400.297,-3067.87 L 402.452,-3069.79 L 404.46,-3071.8 L 406.349,-3073.85 L 408.15,-3076 L 409.803,-3078.24 L 411.308,-3080.58 L 412.725,-3082.91 L 413.935,-3085.34 L 415.057,-3087.87 L 416.061,-3090.39 L 416.858,-3092.96 L 417.566,-3095.57 L 418.098,-3098.19 L 418.481,-3100.85 L 418.688,-3103.52 L 418.747,-3106.23z"/>
    <path style="fill: #b6c7c9" d="M 325.849 -3078.48 L 325.79,-3081.14 L 325.584,-3083.8 L 325.348,-3086.42 L 324.934,-3089.08 L 324.403,-3091.7 L 323.754,-3094.27 L 322.986,-3096.79 L 322.16,-3099.27 L 321.215,-3101.74 L 320.152,-3104.08 L 319.001,-3106.41 L 317.732,-3108.61 L 316.315,-3110.81 L 314.868,-3112.86 L 313.333,-3114.87 L 311.68,-3116.74 L 310.027,-3118.56 L 308.197,-3120.24 L 306.367,-3121.83 L 304.418,-3123.23 L 302.47,-3124.68 L 300.433,-3125.94 L 298.308,-3127.02 L 296.182,-3128 L 293.998,-3128.89 L 291.784,-3129.63 L 289.541,-3130.24 L 287.268,-3130.66 L 285.024,-3131.03 L 282.722,-3131.27 L 280.419,-3131.31 L 280.419,-3131.31 L 278.117,-3131.27 L 275.814,-3131.03 L 273.511,-3130.66 L 271.268,-3130.24 L 268.995,-3129.63 L 266.781,-3128.89 L 264.626,-3128 L 262.501,-3127.02 L 260.405,-3125.94 L 258.368,-3124.68 L 256.361,-3123.23 L 254.471,-3121.83 L 252.582,-3120.24 L 250.811,-3118.56 L 249.128,-3116.74 L 247.475,-3114.87 L 245.94,-3112.86 L 244.464,-3110.81 L 243.077,-3108.61 L 241.837,-3106.41 L 240.656,-3104.08 L 239.623,-3101.74 L 238.649,-3099.27 L 237.793,-3096.79 L 237.055,-3094.27 L 236.406,-3091.7 L 235.874,-3089.08 L 235.49,-3086.42 L 235.195,-3083.8 L 235.018,-3081.14 L 234.959,-3078.48 L 234.959,-3078.48 L 235.018,-3075.77 L 235.195,-3073.1 L 235.49,-3070.44 L 235.874,-3067.82 L 236.406,-3065.21 L 237.055,-3062.64 L 237.793,-3060.12 L 238.649,-3057.64 L 239.623,-3055.16 L 240.656,-3052.83 L 241.837,-3050.49 L 243.077,-3048.3 L 244.464,-3046.1 L 245.94,-3044.04 L 247.475,-3042.04 L 249.128,-3040.17 L 250.811,-3038.39 L 252.582,-3036.71 L 254.471,-3035.03 L 256.361,-3033.58 L 258.368,-3032.27 L 260.405,-3030.96 L 262.501,-3029.89 L 264.626,-3028.91 L 266.781,-3028.02 L 268.995,-3027.32 L 271.268,-3026.71 L 273.511,-3026.24 L 275.814,-3025.82 L 278.117,-3025.68 L 280.419,-3025.64 L 280.419,-3025.64 L 282.722,-3025.68 L 285.024,-3025.82 L 287.268,-3026.24 L 289.541,-3026.71 L 291.784,-3027.32 L 293.998,-3028.02 L 296.182,-3028.91 L 298.308,-3029.89 L 300.433,-3030.96 L 302.47,-3032.27 L 304.418,-3033.58 L 306.367,-3035.03 L 308.197,-3036.71 L 310.027,-3038.39 L 311.68,-3040.17 L 313.333,-3042.04 L 314.868,-3044.04 L 316.315,-3046.1 L 317.732,-3048.3 L 319.001,-3050.49 L 320.152,-3052.83 L 321.215,-3055.16 L 322.16,-3057.64 L 322.986,-3060.12 L 323.754,-3062.64 L 324.403,-3065.21 L 324.934,-3067.82 L 325.348,-3070.44 L 325.584,-3073.1 L 325.79,-3075.77 L 325.849,-3078.48z"/>
    <path style="fill: #b6c7c9" d="M 268.552 -3024.52 L 268.523,-3026.71 L 268.434,-3028.91 L 268.227,-3031.1 L 267.962,-3033.25 L 267.578,-3035.31 L 267.135,-3037.46 L 266.663,-3039.56 L 266.102,-3041.57 L 265.453,-3043.58 L 264.715,-3045.49 L 263.918,-3047.31 L 263.062,-3049.18 L 262.146,-3050.96 L 261.172,-3052.69 L 260.11,-3054.28 L 259.017,-3055.77 L 257.896,-3057.31 L 256.715,-3058.67 L 255.446,-3059.98 L 254.147,-3061.19 L 252.818,-3062.26 L 251.431,-3063.29 L 250.044,-3064.18 L 248.597,-3064.97 L 247.121,-3065.72 L 245.645,-3066.28 L 244.14,-3066.84 L 242.575,-3067.17 L 241.04,-3067.45 L 239.535,-3067.59 L 237.97,-3067.68 L 237.97,-3067.68 L 236.406,-3067.59 L 234.841,-3067.45 L 233.306,-3067.17 L 231.8,-3066.84 L 230.265,-3066.28 L 228.76,-3065.72 L 227.314,-3064.97 L 225.897,-3064.18 L 224.45,-3063.29 L 223.063,-3062.26 L 221.734,-3061.19 L 220.436,-3059.98 L 219.196,-3058.67 L 217.985,-3057.31 L 216.864,-3055.77 L 215.771,-3054.28 L 214.738,-3052.69 L 213.735,-3050.96 L 212.819,-3049.18 L 211.963,-3047.31 L 211.166,-3045.49 L 210.487,-3043.58 L 209.838,-3041.57 L 209.277,-3039.56 L 208.746,-3037.46 L 208.303,-3035.31 L 207.978,-3033.25 L 207.713,-3031.1 L 207.476,-3028.91 L 207.358,-3026.71 L 207.358,-3024.52 L 207.358,-3024.52 L 207.358,-3022.41 L 207.476,-3020.22 L 207.713,-3018.07 L 207.978,-3015.92 L 208.303,-3013.72 L 208.746,-3011.67 L 209.277,-3009.61 L 209.838,-3007.56 L 210.487,-3005.55 L 211.166,-3003.63 L 211.963,-3001.76 L 212.819,-2999.94 L 213.735,-2998.17 L 214.738,-2996.48 L 215.771,-2994.9 L 216.864,-2993.35 L 217.985,-2991.81 L 219.196,-2990.5 L 220.436,-2989.2 L 221.734,-2987.98 L 223.063,-2986.86 L 224.45,-2985.83 L 225.897,-2984.94 L 227.314,-2984.15 L 228.76,-2983.45 L 230.265,-2982.84 L 231.8,-2982.33 L 233.306,-2981.91 L 234.841,-2981.67 L 236.406,-2981.53 L 237.97,-2981.44 L 237.97,-2981.44 L 239.535,-2981.53 L 241.04,-2981.67 L 242.575,-2981.91 L 244.14,-2982.33 L 245.645,-2982.84 L 247.121,-2983.45 L 248.597,-2984.15 L 250.044,-2984.94 L 251.431,-2985.83 L 252.818,-2986.86 L 254.147,-2987.98 L 255.446,-2989.2 L 256.715,-2990.5 L 257.896,-2991.81 L 259.017,-2993.35 L 260.11,-2994.9 L 261.172,-2996.48 L 262.146,-2998.17 L 263.062,-2999.94 L 263.918,-3001.76 L 264.715,-3003.63 L 265.453,-3005.55 L 266.102,-3007.56 L 266.663,-3009.61 L 267.135,-3011.67 L 267.578,-3013.72 L 267.962,-3015.92 L 268.227,-3018.07 L 268.434,-3020.22 L 268.523,-3022.41 L 268.552,-3024.52z"/>
    <path style="fill: #b6c7c9" d="M 317.968 -2982.98 L 317.938,-2985.37 L 317.732,-2987.7 L 317.407,-2990.08 L 317.023,-2992.42 L 316.492,-2994.71 L 315.872,-2997 L 315.075,-2999.24 L 314.248,-3001.44 L 313.245,-3003.49 L 312.182,-3005.64 L 310.972,-3007.7 L 309.702,-3009.61 L 308.344,-3011.53 L 306.868,-3013.44 L 305.304,-3015.17 L 303.651,-3016.85 L 301.909,-3018.4 L 300.079,-3019.94 L 298.219,-3021.29 L 296.271,-3022.65 L 294.234,-3023.81 L 292.168,-3024.94 L 290.042,-3025.92 L 287.887,-3026.8 L 285.673,-3027.55 L 283.4,-3028.16 L 281.157,-3028.72 L 278.854,-3029.19 L 276.552,-3029.47 L 274.22,-3029.65 L 271.858,-3029.7 L 271.858,-3029.7 L 269.526,-3029.65 L 267.224,-3029.47 L 264.862,-3029.19 L 262.589,-3028.72 L 260.287,-3028.16 L 258.073,-3027.55 L 255.859,-3026.8 L 253.674,-3025.92 L 251.549,-3024.94 L 249.512,-3023.81 L 247.475,-3022.65 L 245.527,-3021.29 L 243.638,-3019.94 L 241.837,-3018.4 L 240.095,-3016.85 L 238.442,-3015.17 L 236.878,-3013.44 L 235.402,-3011.53 L 234.014,-3009.61 L 232.745,-3007.7 L 231.535,-3005.64 L 230.443,-3003.49 L 229.498,-3001.44 L 228.642,-2999.24 L 227.845,-2997 L 227.195,-2994.71 L 226.723,-2992.42 L 226.28,-2990.08 L 225.985,-2987.7 L 225.808,-2985.37 L 225.749,-2982.98 L 225.749,-2982.98 L 225.808,-2980.65 L 225.985,-2978.26 L 226.28,-2975.93 L 226.723,-2973.59 L 227.195,-2971.3 L 227.845,-2969.01 L 228.642,-2966.72 L 229.498,-2964.53 L 230.443,-2962.43 L 231.535,-2960.37 L 232.745,-2958.32 L 234.014,-2956.35 L 235.402,-2954.39 L 236.878,-2952.52 L 238.442,-2950.79 L 240.095,-2949.16 L 241.837,-2947.57 L 243.638,-2946.07 L 245.527,-2944.67 L 247.475,-2943.32 L 249.512,-2942.15 L 251.549,-2941.03 L 253.674,-2940.09 L 255.859,-2939.21 L 258.073,-2938.46 L 260.287,-2937.81 L 262.589,-2937.2 L 264.862,-2936.78 L 267.224,-2936.5 L 269.526,-2936.31 L 271.858,-2936.31 L 271.858,-2936.31 L 274.22,-2936.31 L 276.552,-2936.5 L 278.854,-2936.78 L 281.157,-2937.2 L 283.4,-2937.81 L 285.673,-2938.46 L 287.887,-2939.21 L 290.042,-2940.09 L 292.168,-2941.03 L 294.234,-2942.15 L 296.271,-2943.32 L 298.219,-2944.67 L 300.079,-2946.07 L 301.909,-2947.57 L 303.651,-2949.16 L 305.304,-2950.79 L 306.868,-2952.52 L 308.344,-2954.39 L 309.702,-2956.35 L 310.972,-2958.32 L 312.182,-2960.37 L 313.245,-2962.43 L 314.248,-2964.53 L 315.075,-2966.72 L 315.872,-2969.01 L 316.492,-2971.3 L 317.023,-2973.59 L 317.407,-2975.93 L 317.732,-2978.26 L 317.938,-2980.65 L 317.968,-2982.98z"/>
    <path style="fill: #b6c7c9" d="M 428.636 -2958.83 L 428.518,-2961.68 L 428.282,-2964.53 L 427.81,-2967.29 L 427.19,-2970.04 L 426.422,-2972.8 L 425.478,-2975.46 L 424.356,-2978.08 L 423.057,-2980.74 L 421.581,-2983.31 L 419.987,-2985.79 L 418.186,-2988.17 L 416.297,-2990.5 L 414.231,-2992.79 L 412.046,-2994.99 L 409.655,-2997.09 L 407.235,-2999.05 L 404.637,-3000.97 L 401.921,-3002.74 L 399.146,-3004.38 L 396.194,-3005.92 L 393.213,-3007.37 L 390.113,-3008.63 L 386.955,-3009.85 L 383.678,-3010.87 L 380.401,-3011.81 L 377.036,-3012.56 L 373.671,-3013.21 L 370.188,-3013.68 L 366.793,-3014 L 363.28,-3014.28 L 359.797,-3014.28 L 359.797,-3014.28 L 356.314,-3014.28 L 352.83,-3014 L 349.376,-3013.68 L 345.952,-3013.21 L 342.528,-3012.56 L 339.192,-3011.81 L 335.886,-3010.87 L 332.668,-3009.85 L 329.451,-3008.63 L 326.41,-3007.37 L 323.37,-3005.92 L 320.477,-3004.38 L 317.673,-3002.74 L 314.986,-3000.97 L 312.389,-2999.05 L 309.909,-2997.09 L 307.577,-2994.99 L 305.392,-2992.79 L 303.297,-2990.5 L 301.378,-2988.17 L 299.607,-2985.79 L 298.042,-2983.31 L 296.566,-2980.74 L 295.267,-2978.08 L 294.146,-2975.46 L 293.171,-2972.8 L 292.404,-2970.04 L 291.754,-2967.29 L 291.312,-2964.53 L 291.046,-2961.68 L 290.957,-2958.83 L 290.957,-2958.83 L 291.046,-2956.12 L 291.312,-2953.27 L 291.754,-2950.51 L 292.404,-2947.71 L 293.171,-2944.95 L 294.146,-2942.29 L 295.267,-2939.67 L 296.566,-2937.01 L 298.042,-2934.44 L 299.607,-2931.97 L 301.378,-2929.58 L 303.297,-2927.15 L 305.392,-2924.96 L 307.577,-2922.76 L 309.909,-2920.71 L 312.389,-2918.65 L 314.986,-2916.78 L 317.673,-2915.01 L 320.477,-2913.37 L 323.37,-2911.78 L 326.41,-2910.43 L 329.451,-2909.12 L 332.668,-2907.95 L 335.886,-2906.92 L 339.192,-2905.94 L 342.528,-2905.24 L 345.952,-2904.59 L 349.376,-2904.07 L 352.83,-2903.75 L 356.314,-2903.47 L 359.797,-2903.47 L 359.797,-2903.47 L 363.28,-2903.47 L 366.793,-2903.75 L 370.188,-2904.07 L 373.671,-2904.59 L 377.036,-2905.24 L 380.401,-2905.94 L 383.678,-2906.92 L 386.955,-2907.95 L 390.113,-2909.12 L 393.213,-2910.43 L 396.194,-2911.78 L 399.146,-2913.37 L 401.921,-2915.01 L 404.637,-2916.78 L 407.235,-2918.65 L 409.655,-2920.71 L 412.046,-2922.76 L 414.231,-2924.96 L 416.297,-2927.15 L 418.186,-2929.58 L 419.987,-2931.97 L 421.581,-2934.44 L 423.057,-2937.01 L 424.356,-2939.67 L 425.478,-2942.29 L 426.422,-2944.95 L 427.19,-2947.71 L 427.81,-2950.51 L 428.282,-2953.27 L 428.518,-2956.12 L 428.636,-2958.83z"/>
    <path style="fill: #b6c7c9" d="M 466.834 -3086.7 L 466.805,-3088.75 L 466.628,-3090.9 L 466.303,-3093.01 L 465.949,-3095.06 L 465.417,-3097.07 L 464.827,-3099.13 L 464.089,-3101.13 L 463.233,-3103.1 L 462.318,-3104.97 L 461.314,-3106.88 L 460.163,-3108.7 L 458.923,-3110.48 L 457.624,-3112.11 L 456.178,-3113.8 L 454.702,-3115.34 L 453.078,-3116.79 L 451.425,-3118.28 L 449.713,-3119.59 L 447.883,-3120.8 L 446.023,-3121.97 L 444.134,-3123.05 L 442.127,-3124.03 L 440.09,-3124.91 L 438.023,-3125.71 L 435.898,-3126.41 L 433.773,-3126.88 L 431.588,-3127.44 L 429.404,-3127.81 L 427.16,-3128.04 L 424.946,-3128.18 L 422.703,-3128.28 L 422.703,-3128.28 L 420.43,-3128.18 L 418.216,-3128.04 L 415.972,-3127.81 L 413.788,-3127.44 L 411.633,-3126.88 L 409.478,-3126.41 L 407.382,-3125.71 L 405.286,-3124.91 L 403.249,-3124.03 L 401.242,-3123.05 L 399.323,-3121.97 L 397.493,-3120.8 L 395.663,-3119.59 L 393.951,-3118.28 L 392.298,-3116.79 L 390.704,-3115.34 L 389.198,-3113.8 L 387.752,-3112.11 L 386.453,-3110.48 L 385.243,-3108.7 L 384.062,-3106.88 L 383.058,-3104.97 L 382.143,-3103.1 L 381.287,-3101.13 L 380.549,-3099.13 L 379.959,-3097.07 L 379.457,-3095.06 L 379.043,-3093.01 L 378.778,-3090.9 L 378.63,-3088.75 L 378.542,-3086.7 L 378.542,-3086.7 L 378.63,-3084.6 L 378.778,-3082.49 L 379.043,-3080.44 L 379.457,-3078.34 L 379.959,-3076.28 L 380.549,-3074.27 L 381.287,-3072.26 L 382.143,-3070.3 L 383.058,-3068.34 L 384.062,-3066.52 L 385.243,-3064.74 L 386.453,-3062.92 L 387.752,-3061.24 L 389.198,-3059.65 L 390.704,-3058.06 L 392.298,-3056.56 L 393.951,-3055.16 L 395.663,-3053.86 L 397.493,-3052.55 L 399.323,-3051.38 L 401.242,-3050.35 L 403.249,-3049.32 L 405.286,-3048.48 L 407.382,-3047.73 L 409.478,-3046.99 L 411.633,-3046.43 L 413.788,-3045.96 L 415.972,-3045.54 L 418.216,-3045.35 L 420.43,-3045.12 L 422.703,-3045.12 L 422.703,-3045.12 L 424.946,-3045.12 L 427.16,-3045.35 L 429.404,-3045.54 L 431.588,-3045.96 L 433.773,-3046.43 L 435.898,-3046.99 L 438.023,-3047.73 L 440.09,-3048.48 L 442.127,-3049.32 L 444.134,-3050.35 L 446.023,-3051.38 L 447.883,-3052.55 L 449.713,-3053.86 L 451.425,-3055.16 L 453.078,-3056.56 L 454.702,-3058.06 L 456.178,-3059.65 L 457.624,-3061.24 L 458.923,-3062.92 L 460.163,-3064.74 L 461.314,-3066.52 L 462.318,-3068.34 L 463.233,-3070.3 L 464.089,-3072.26 L 464.827,-3074.27 L 465.417,-3076.28 L 465.949,-3078.34 L 466.303,-3080.44 L 466.628,-3082.49 L 466.805,-3084.6 L 466.834,-3086.7z"/>
    <path style="fill: #b6c7c9" d="M 479.351 -3033.3 L 479.262,-3035.4 L 479.144,-3037.5 L 478.849,-3039.56 L 478.465,-3041.61 L 477.934,-3043.72 L 477.343,-3045.68 L 476.635,-3047.73 L 475.779,-3049.65 L 474.864,-3051.61 L 473.86,-3053.43 L 472.709,-3055.3 L 471.469,-3057.03 L 470.2,-3058.67 L 468.753,-3060.4 L 467.277,-3061.89 L 465.742,-3063.43 L 464.089,-3064.83 L 462.318,-3066.14 L 460.576,-3067.4 L 458.716,-3068.57 L 456.827,-3069.65 L 454.849,-3070.63 L 452.842,-3071.47 L 450.776,-3072.26 L 448.65,-3072.96 L 446.525,-3073.52 L 444.37,-3073.99 L 442.156,-3074.41 L 439.972,-3074.6 L 437.758,-3074.74 L 435.544,-3074.83 L 435.544,-3074.83 L 433.3,-3074.74 L 431.116,-3074.6 L 428.902,-3074.41 L 426.747,-3073.99 L 424.592,-3073.52 L 422.437,-3072.96 L 420.341,-3072.26 L 418.304,-3071.47 L 416.268,-3070.63 L 414.29,-3069.65 L 412.4,-3068.57 L 410.541,-3067.4 L 408.74,-3066.14 L 407.057,-3064.83 L 405.404,-3063.43 L 403.781,-3061.89 L 402.305,-3060.4 L 400.917,-3058.67 L 399.648,-3057.03 L 398.408,-3055.3 L 397.287,-3053.43 L 396.224,-3051.61 L 395.309,-3049.65 L 394.512,-3047.73 L 393.774,-3045.68 L 393.124,-3043.72 L 392.652,-3041.61 L 392.268,-3039.56 L 391.973,-3037.5 L 391.796,-3035.4 L 391.766,-3033.3 L 391.766,-3033.3 L 391.796,-3031.2 L 391.973,-3029.05 L 392.268,-3026.99 L 392.652,-3024.94 L 393.124,-3022.88 L 393.774,-3020.87 L 394.512,-3018.82 L 395.309,-3016.9 L 396.224,-3015.03 L 397.287,-3013.12 L 398.408,-3011.34 L 399.648,-3009.57 L 400.917,-3007.88 L 402.305,-3006.25 L 403.781,-3004.66 L 405.404,-3003.21 L 407.057,-3001.76 L 408.74,-3000.46 L 410.541,-2999.24 L 412.4,-2998.07 L 414.29,-2997 L 416.268,-2996.02 L 418.304,-2995.13 L 420.341,-2994.29 L 422.437,-2993.59 L 424.592,-2993.12 L 426.747,-2992.56 L 428.902,-2992.23 L 431.116,-2991.95 L 433.3,-2991.81 L 435.544,-2991.77 L 435.544,-2991.77 L 437.758,-2991.81 L 439.972,-2991.95 L 442.156,-2992.23 L 444.37,-2992.56 L 446.525,-2993.12 L 448.65,-2993.59 L 450.776,-2994.29 L 452.842,-2995.13 L 454.849,-2996.02 L 456.827,-2997 L 458.716,-2998.07 L 460.576,-2999.24 L 462.318,-3000.46 L 464.089,-3001.76 L 465.742,-3003.21 L 467.277,-3004.66 L 468.753,-3006.25 L 470.2,-3007.88 L 471.469,-3009.57 L 472.709,-3011.34 L 473.86,-3013.12 L 474.864,-3015.03 L 475.779,-3016.9 L 476.635,-3018.82 L 477.343,-3020.87 L 477.934,-3022.88 L 478.465,-3024.94 L 478.849,-3026.99 L 479.144,-3029.05 L 479.262,-3031.2 L 479.351,-3033.3z"/>
    <path style="fill: #b6c7c9" d="M 470.79 -2989.15 L 470.731,-2992.56 L 470.554,-2996.06 L 470.318,-2999.43 L 469.934,-3002.88 L 469.432,-3006.25 L 468.812,-3009.57 L 468.104,-3012.84 L 467.248,-3016.06 L 466.332,-3019.19 L 465.358,-3022.27 L 464.237,-3025.26 L 462.997,-3028.11 L 461.698,-3030.92 L 460.281,-3033.58 L 458.805,-3036.15 L 457.27,-3038.62 L 455.617,-3040.96 L 453.934,-3043.06 L 452.134,-3045.12 L 450.303,-3046.99 L 448.414,-3048.76 L 446.495,-3050.35 L 444.488,-3051.85 L 442.451,-3053.15 L 440.326,-3054.28 L 438.23,-3055.16 L 436.046,-3056 L 433.891,-3056.61 L 431.736,-3057.03 L 429.551,-3057.31 L 427.337,-3057.36 L 427.337,-3057.36 L 425.123,-3057.31 L 422.939,-3057.03 L 420.725,-3056.61 L 418.57,-3056 L 416.445,-3055.16 L 414.29,-3054.28 L 412.223,-3053.15 L 410.187,-3051.85 L 408.179,-3050.35 L 406.201,-3048.76 L 404.312,-3046.99 L 402.482,-3045.12 L 400.74,-3043.06 L 398.999,-3040.96 L 397.375,-3038.62 L 395.811,-3036.15 L 394.335,-3033.58 L 392.947,-3030.92 L 391.619,-3028.11 L 390.438,-3025.26 L 389.316,-3022.27 L 388.283,-3019.19 L 387.368,-3016.06 L 386.571,-3012.84 L 385.862,-3009.57 L 385.243,-3006.25 L 384.741,-3002.88 L 384.357,-2999.43 L 384.062,-2996.06 L 383.885,-2992.56 L 383.826,-2989.15 L 383.826,-2989.15 L 383.885,-2985.69 L 384.062,-2982.19 L 384.357,-2978.82 L 384.741,-2975.41 L 385.243,-2971.96 L 385.862,-2968.69 L 386.571,-2965.46 L 387.368,-2962.19 L 388.283,-2959.11 L 389.316,-2956.03 L 390.438,-2952.99 L 391.619,-2950.14 L 392.947,-2947.38 L 394.335,-2944.67 L 395.811,-2942.1 L 397.375,-2939.67 L 398.999,-2937.34 L 400.74,-2935.14 L 402.482,-2933.13 L 404.312,-2931.22 L 406.201,-2929.49 L 408.179,-2927.85 L 410.187,-2926.41 L 412.223,-2925.1 L 414.29,-2924.02 L 416.445,-2923.04 L 418.57,-2922.3 L 420.725,-2921.69 L 422.939,-2921.27 L 425.123,-2920.99 L 427.337,-2920.85 L 427.337,-2920.85 L 429.551,-2920.99 L 431.736,-2921.27 L 433.891,-2921.69 L 436.046,-2922.3 L 438.23,-2923.04 L 440.326,-2924.02 L 442.451,-2925.1 L 444.488,-2926.41 L 446.495,-2927.85 L 448.414,-2929.49 L 450.303,-2931.22 L 452.134,-2933.13 L 453.934,-2935.14 L 455.617,-2937.34 L 457.27,-2939.67 L 458.805,-2942.1 L 460.281,-2944.67 L 461.698,-2947.38 L 462.997,-2950.14 L 464.237,-2952.99 L 465.358,-2956.03 L 466.332,-2959.11 L 467.248,-2962.19 L 468.104,-2965.46 L 468.812,-2968.69 L 469.432,-2971.96 L 469.934,-2975.41 L 470.318,-2978.82 L 470.554,-2982.19 L 470.731,-2985.69 L 470.79,-2989.15z"/>
    <path style="fill: #b6c7c9" d="M 433.241 -3030.22 L 433.123,-3033.72 L 432.769,-3037.08 L 432.208,-3040.59 L 431.441,-3043.95 L 430.437,-3047.31 L 429.197,-3050.68 L 427.751,-3053.95 L 426.068,-3057.17 L 424.238,-3060.3 L 422.171,-3063.34 L 419.869,-3066.38 L 417.419,-3069.27 L 414.762,-3071.98 L 411.928,-3074.69 L 408.917,-3077.31 L 405.788,-3079.74 L 402.452,-3082.03 L 398.969,-3084.22 L 395.397,-3086.28 L 391.648,-3088.19 L 387.781,-3089.92 L 383.826,-3091.56 L 379.781,-3093.01 L 375.649,-3094.27 L 371.398,-3095.34 L 367.088,-3096.32 L 362.749,-3097.07 L 358.35,-3097.68 L 353.922,-3098.19 L 349.465,-3098.42 L 344.949,-3098.52 L 344.949,-3098.52 L 340.491,-3098.42 L 336.034,-3098.19 L 331.606,-3097.68 L 327.178,-3097.07 L 322.838,-3096.32 L 318.529,-3095.34 L 314.307,-3094.27 L 310.175,-3093.01 L 306.071,-3091.56 L 302.175,-3089.92 L 298.308,-3088.19 L 294.529,-3086.28 L 290.928,-3084.22 L 287.504,-3082.03 L 284.138,-3079.74 L 280.98,-3077.31 L 278.028,-3074.69 L 275.165,-3071.98 L 272.508,-3069.27 L 270.087,-3066.38 L 267.785,-3063.34 L 265.748,-3060.3 L 263.888,-3057.17 L 262.176,-3053.95 L 260.759,-3050.68 L 259.549,-3047.31 L 258.486,-3043.95 L 257.719,-3040.59 L 257.158,-3037.08 L 256.803,-3033.72 L 256.715,-3030.22 L 256.715,-3030.22 L 256.803,-3026.8 L 257.158,-3023.35 L 257.719,-3019.94 L 258.486,-3016.48 L 259.549,-3013.12 L 260.759,-3009.8 L 262.176,-3006.58 L 263.888,-3003.31 L 265.748,-3000.13 L 267.785,-2997.09 L 270.087,-2994.15 L 272.508,-2991.25 L 275.165,-2988.45 L 278.028,-2985.79 L 280.98,-2983.22 L 284.138,-2980.74 L 287.504,-2978.4 L 290.928,-2976.21 L 294.529,-2974.15 L 298.308,-2972.33 L 302.175,-2970.51 L 306.071,-2968.97 L 310.175,-2967.52 L 314.307,-2966.21 L 318.529,-2965.09 L 322.838,-2964.16 L 327.178,-2963.36 L 331.606,-2962.75 L 336.034,-2962.33 L 340.491,-2962.01 L 344.949,-2961.96 L 344.949,-2961.96 L 349.465,-2962.01 L 353.922,-2962.33 L 358.35,-2962.75 L 362.749,-2963.36 L 367.088,-2964.16 L 371.398,-2965.09 L 375.649,-2966.21 L 379.781,-2967.52 L 383.826,-2968.97 L 387.781,-2970.51 L 391.648,-2972.33 L 395.397,-2974.15 L 398.969,-2976.21 L 402.452,-2978.4 L 405.788,-2980.74 L 408.917,-2983.22 L 411.928,-2985.79 L 414.762,-2988.45 L 417.419,-2991.25 L 419.869,-2994.15 L 422.171,-2997.09 L 424.238,-3000.13 L 426.068,-3003.31 L 427.751,-3006.58 L 429.197,-3009.8 L 430.437,-3013.12 L 431.441,-3016.48 L 432.208,-3019.94 L 432.769,-3023.35 L 433.123,-3026.8 L 433.241,-3030.22z"/>
    <path style="fill: #b6c7c9" d="M 360.151 -3106.69 L 418.57,-3118.47 L 417.832,-3121.04 L 416.917,-3123.65 L 415.913,-3126.22 L 414.703,-3128.7 L 413.404,-3131.08 L 411.928,-3133.51 L 410.393,-3135.8 L 408.622,-3138 L 406.821,-3140.14 L 404.873,-3142.2 L 402.777,-3144.16 L 400.593,-3145.98 L 398.29,-3147.76 L 395.899,-3149.49 L 393.419,-3151.03 L 390.851,-3152.43 L 388.254,-3153.83 L 385.508,-3155 L 382.733,-3156.08 L 379.929,-3157.06 L 377.007,-3157.9 L 374.084,-3158.55 L 371.132,-3159.16 L 368.151,-3159.58 L 365.14,-3159.86 L 362.099,-3160 L 359.088,-3160 L 356.048,-3159.86 L 353.007,-3159.67 L 350.055,-3159.3 L 347.074,-3158.69 L 344.122,-3158.08 L 341.2,-3157.24 L 338.336,-3156.36 L 335.561,-3155.33 L 332.846,-3154.16 L 330.159,-3152.85 L 327.562,-3151.5 L 325.111,-3149.96 L 322.691,-3148.32 L 320.359,-3146.59 L 318.145,-3144.77 L 316.049,-3142.81 L 314.071,-3140.75 L 312.182,-3138.65 L 310.411,-3136.45 L 308.758,-3134.16 L 307.252,-3131.83 L 305.953,-3129.35 L 304.684,-3126.97 L 303.592,-3124.4 L 302.677,-3121.88 L 301.909,-3119.26 L 301.26,-3116.65 L 360.151,-3106.69z"/>
    <path style="fill: none; fill-opacity:0; stroke-width: 0.02; stroke: #6c8f93" d="M 418.57 -3118.56 L 417.803,-3121.18 L 416.917,-3123.75 L 415.884,-3126.32 L 414.703,-3128.75 L 413.345,-3131.17 L 411.899,-3133.56 L 410.334,-3135.85 L 408.563,-3138.04 L 406.733,-3140.14 L 404.843,-3142.2 L 402.718,-3144.26 L 400.593,-3146.08 L 398.261,-3147.85 L 395.87,-3149.49 L 393.419,-3151.12 L 390.851,-3152.53 L 388.224,-3153.83 L 385.479,-3155.05 L 382.704,-3156.08 L 379.929,-3157.06 L 377.007,-3157.9 L 374.055,-3158.55 L 371.103,-3159.16 L 368.121,-3159.58 L 365.14,-3159.86 L 362.07,-3160 L 359.059,-3160 L 356.048,-3159.86 L 353.037,-3159.67 L 350.026,-3159.3 L 347.074,-3158.69 L 344.122,-3158.13 L 341.229,-3157.34 L 338.395,-3156.36 L 335.561,-3155.33 L 332.875,-3154.16 L 330.189,-3152.85 L 327.621,-3151.5 L 325.111,-3150 L 322.72,-3148.32 L 320.388,-3146.59 L 318.174,-3144.82 L 316.079,-3142.85 L 314.071,-3140.85 L 312.182,-3138.7 L 310.411,-3136.5 L 308.817,-3134.26 L 307.282,-3131.83 L 305.953,-3129.49 L 304.714,-3127.02 L 303.651,-3124.54 L 302.677,-3121.97 L 301.909,-3119.35 L 301.289,-3116.74"/>
    <path style="fill: #b6c7c9" d="M 280.714 -3078.99 L 310.175,-3119.87 L 308.344,-3121.55 L 306.426,-3123.14 L 304.477,-3124.54 L 302.47,-3125.94 L 300.433,-3127.16 L 298.308,-3128.28 L 296.123,-3129.21 L 293.968,-3130.1 L 291.695,-3130.8 L 289.452,-3131.41 L 287.149,-3131.83 L 284.847,-3132.16 L 282.544,-3132.34 L 280.242,-3132.34 L 277.91,-3132.25 L 275.607,-3131.97 L 273.305,-3131.64 L 271.032,-3131.13 L 268.788,-3130.47 L 266.574,-3129.73 L 264.36,-3128.84 L 262.235,-3127.81 L 260.11,-3126.64 L 258.073,-3125.38 L 256.095,-3123.98 L 254.206,-3122.44 L 252.317,-3120.8 L 250.545,-3119.12 L 248.863,-3117.25 L 247.21,-3115.34 L 245.675,-3113.28 L 244.258,-3111.23 L 242.9,-3108.98 L 241.66,-3106.74 L 240.479,-3104.4 L 239.446,-3101.98 L 238.472,-3099.5 L 237.645,-3097.02 L 236.907,-3094.45 L 236.317,-3091.84 L 235.845,-3089.22 L 235.431,-3086.51 L 235.136,-3083.8 L 235.018,-3081.14 L 234.959,-3078.48 L 235.048,-3075.77 L 235.225,-3073.01 L 235.579,-3070.39 L 280.714,-3078.99z"/>
    <path style="fill: none; fill-opacity:0; stroke-width: 0.02; stroke: #6c8f93" d="M 310.027 -3120.01 L 308.197,-3121.69 L 306.337,-3123.23 L 304.389,-3124.68 L 302.352,-3125.99 L 300.256,-3127.25 L 298.16,-3128.32 L 296.005,-3129.31 L 293.791,-3130.15 L 291.577,-3130.8 L 289.275,-3131.41 L 287.002,-3131.83 L 284.729,-3132.16 L 282.426,-3132.34 L 280.065,-3132.34 L 277.821,-3132.25 L 275.519,-3131.97 L 273.157,-3131.64 L 270.914,-3131.08 L 268.7,-3130.47 L 266.427,-3129.63 L 264.272,-3128.79 L 262.146,-3127.72 L 260.051,-3126.55 L 257.984,-3125.29 L 256.006,-3123.89 L 254.117,-3122.34 L 252.287,-3120.76 L 250.516,-3118.98 L 248.774,-3117.21 L 247.21,-3115.2 L 245.645,-3113.23 L 244.199,-3111.09 L 242.87,-3108.94 L 241.601,-3106.69 L 240.479,-3104.31 L 239.446,-3101.88 L 238.472,-3099.41 L 237.616,-3096.93 L 236.907,-3094.31 L 236.317,-3091.79 L 235.786,-3089.13 L 235.431,-3086.42 L 235.136,-3083.76 L 235.018,-3081.09 L 234.959,-3078.38 L 235.107,-3075.72 L 235.284,-3073.01 L 235.579,-3070.3"/>
    <path style="fill: #b6c7c9" d="M 272.508 -2983.5 L 225.1,-2984.94 L 225.1,-2982.47 L 225.188,-2980.13 L 225.424,-2977.66 L 225.808,-2975.32 L 226.251,-2972.94 L 226.812,-2970.51 L 227.55,-2968.27 L 228.317,-2965.98 L 229.291,-2963.73 L 230.325,-2961.59 L 231.417,-2959.39 L 232.716,-2957.33 L 234.014,-2955.33 L 235.49,-2953.41 L 236.996,-2951.54 L 238.619,-2949.77 L 240.361,-2948.13 L 242.132,-2946.54 L 243.992,-2944.95 L 245.94,-2943.6 L 247.948,-2942.29 L 250.044,-2941.03 L 252.169,-2940 L 254.294,-2938.97 L 256.538,-2938.09 L 258.811,-2937.34 L 261.113,-2936.73 L 263.445,-2936.17 L 265.777,-2935.75 L 268.139,-2935.47 L 270.53,-2935.33 L 272.951,-2935.33 L 275.283,-2935.42 L 277.674,-2935.61 L 280.035,-2935.89 L 282.367,-2936.31 L 284.729,-2936.92 L 286.972,-2937.62 L 289.275,-2938.37 L 291.43,-2939.35 L 293.614,-2940.28 L 295.74,-2941.45 L 297.747,-2942.71 L 299.784,-2944.07 L 301.644,-2945.51 L 303.503,-2947.01 L 272.508,-2983.5z"/>
    <path style="fill: none; fill-opacity:0; stroke-width: 0.02; stroke: #6c8f93" d="M 225.159 -2984.94 L 225.07,-2982.56 L 225.247,-2980.13 L 225.424,-2977.75 L 225.808,-2975.32 L 226.251,-2972.98 L 226.841,-2970.6 L 227.55,-2968.27 L 228.376,-2965.98 L 229.291,-2963.78 L 230.265,-2961.59 L 231.417,-2959.48 L 232.627,-2957.38 L 234.014,-2955.42 L 235.431,-2953.41 L 236.966,-2951.63 L 238.56,-2949.86 L 240.273,-2948.13 L 242.044,-2946.54 L 243.903,-2945.05 L 245.852,-2943.65 L 247.859,-2942.34 L 249.896,-2941.12 L 252.021,-2940 L 254.235,-2938.97 L 256.42,-2938.18 L 258.663,-2937.43 L 260.966,-2936.73 L 263.327,-2936.26 L 265.659,-2935.75 L 267.991,-2935.56 L 270.382,-2935.33 L 272.773,-2935.33 L 275.135,-2935.33 L 277.497,-2935.56 L 279.858,-2935.89 L 282.19,-2936.31 L 284.552,-2936.87 L 286.795,-2937.53 L 289.098,-2938.32 L 291.282,-2939.25 L 293.408,-2940.28 L 295.533,-2941.4 L 297.57,-2942.62 L 299.607,-2943.93 L 301.525,-2945.37 L 303.326,-2946.87"/>
    <path style="fill: #b6c7c9" d="M 423.352 -3087.68 L 465.063,-3074.18 L 465.772,-3076.19 L 466.303,-3078.2 L 466.805,-3080.25 L 467.1,-3082.35 L 467.395,-3084.46 L 467.454,-3086.56 L 467.454,-3088.71 L 467.395,-3090.76 L 467.159,-3092.87 L 466.834,-3094.97 L 466.362,-3097.02 L 465.801,-3099.08 L 465.152,-3101.04 L 464.384,-3103.05 L 463.499,-3104.97 L 462.495,-3106.88 L 461.373,-3108.75 L 460.222,-3110.52 L 458.953,-3112.25 L 457.595,-3113.89 L 456.148,-3115.57 L 454.554,-3117.07 L 452.96,-3118.51 L 451.219,-3119.87 L 449.477,-3121.18 L 447.647,-3122.34 L 445.757,-3123.51 L 443.78,-3124.54 L 441.772,-3125.47 L 439.706,-3126.32 L 437.581,-3127.02 L 435.485,-3127.62 L 433.271,-3128.18 L 431.086,-3128.61 L 428.872,-3128.93 L 426.629,-3129.07 L 424.415,-3129.21 L 422.201,-3129.21 L 419.957,-3129.07 L 417.714,-3128.89 L 415.53,-3128.56 L 413.316,-3128.14 L 411.131,-3127.62 L 408.976,-3126.97 L 423.352,-3087.68z"/>
    <path style="fill: none; fill-opacity:0; stroke-width: 0.02; stroke: #6c8f93" d="M 461.226 -3066.56 L 465.034,-3074.08 L 465.742,-3076.05 L 466.303,-3078.1 L 466.746,-3080.16 L 467.1,-3082.26 L 467.336,-3084.36 L 467.425,-3086.42 L 467.454,-3088.61 L 467.366,-3090.67 L 467.159,-3092.77 L 466.834,-3094.87 L 466.362,-3096.93 L 465.801,-3098.99 L 465.181,-3100.99 L 464.414,-3102.91 L 463.499,-3104.92 L 462.495,-3106.83 L 461.462,-3108.7 L 460.251,-3110.48 L 458.982,-3112.21 L 457.624,-3113.89 L 456.178,-3115.48 L 454.643,-3116.97 L 453.019,-3118.47 L 451.337,-3119.87 L 449.536,-3121.13 L 447.706,-3122.34 L 445.816,-3123.47 L 443.839,-3124.4 L 441.831,-3125.38 L 439.795,-3126.27 L 437.699,-3127.02 L 435.544,-3127.62 L 433.418,-3128.18 L 431.234,-3128.61 L 429.02,-3128.89 L 426.776,-3129.07 L 424.533,-3129.21 L 422.26,-3129.21 L 420.046,-3129.07 L 417.803,-3128.89 L 415.589,-3128.61 L 413.404,-3128.18 L 411.249,-3127.67 L 409.094,-3127.02"/>
    <path style="fill: #b6c7c9" d="M 429.286 -3032.78 L 476.251,-3015.69 L 477.196,-3017.93 L 477.963,-3020.12 L 478.672,-3022.46 L 479.232,-3024.8 L 479.616,-3027.13 L 479.882,-3029.47 L 479.97,-3031.9 L 479.97,-3034.28 L 479.793,-3036.66 L 479.528,-3039 L 479.055,-3041.38 L 478.495,-3043.67 L 477.757,-3045.96 L 476.959,-3048.25 L 475.956,-3050.44 L 474.834,-3052.55 L 473.624,-3054.7 L 472.236,-3056.8 L 470.76,-3058.76 L 429.286,-3032.78z"/>
    <path style="fill: none; fill-opacity:0; stroke-width: 0.02; stroke: #6c8f93" d="M 470.288 -3007.93 L 476.192,-3015.59 L 477.078,-3017.79 L 477.963,-3020.12 L 478.642,-3022.41 L 479.203,-3024.8 L 479.587,-3027.13 L 479.882,-3029.47 L 480,-3031.9 L 479.97,-3034.28 L 479.793,-3036.71 L 479.469,-3039.05 L 479.055,-3041.38 L 478.495,-3043.72 L 477.757,-3046.05 L 476.93,-3048.34 L 475.897,-3050.58 L 474.805,-3052.69 L 473.506,-3054.84 L 472.177,-3056.89 L 470.672,-3058.85 L 461.226,-3066.56"/>
    <path style="fill: #b6c7c9" d="M 427.308 -2987.65 L 412.489,-2922.76 L 414.673,-2921.73 L 416.887,-2920.8 L 419.101,-2920.1 L 421.404,-2919.54 L 423.647,-2919.12 L 425.891,-2918.93 L 428.223,-2918.93 L 430.496,-2919.12 L 432.739,-2919.4 L 435.012,-2919.96 L 437.226,-2920.66 L 439.44,-2921.45 L 441.625,-2922.48 L 443.78,-2923.74 L 445.846,-2925.1 L 447.912,-2926.64 L 449.92,-2928.32 L 451.868,-2930.19 L 453.757,-2932.11 L 455.558,-2934.3 L 457.27,-2936.59 L 458.923,-2938.97 L 460.517,-2941.54 L 462.023,-2944.21 L 463.381,-2946.96 L 464.679,-2949.86 L 465.919,-2952.8 L 467.011,-2955.89 L 467.986,-2958.97 L 468.901,-2962.19 L 469.668,-2965.51 L 470.377,-2968.87 L 470.938,-2972.24 L 471.41,-2975.69 L 471.705,-2979.11 L 471.971,-2982.61 L 472.03,-2986.11 L 472.03,-2989.62 L 471.912,-2993.12 L 471.676,-2996.62 L 471.321,-3000.08 L 470.878,-3003.49 L 470.288,-3006.86 L 427.308,-2987.65z"/>
    <path style="fill: none; fill-opacity:0; stroke-width: 0.02; stroke: #6c8f93" d="M 412.607 -2922.72 L 414.821,-2921.59 L 417.005,-2920.71 L 419.249,-2919.96 L 421.492,-2919.49 L 423.795,-2919.12 L 426.038,-2918.93 L 428.311,-2918.84 L 430.584,-2919.12 L 432.887,-2919.4 L 435.13,-2919.96 L 437.344,-2920.66 L 439.558,-2921.55 L 441.743,-2922.58 L 443.868,-2923.79 L 445.994,-2925.19 L 448.03,-2926.69 L 450.008,-2928.32 L 451.927,-2930.19 L 453.816,-2932.25 L 455.617,-2934.4 L 457.329,-2936.73 L 458.982,-2939.11 L 460.576,-2941.59 L 462.052,-2944.3 L 463.469,-2947.1 L 464.709,-2949.91 L 465.949,-2952.94 L 467.041,-2956.03 L 468.015,-2959.11 L 468.901,-2962.33 L 469.698,-2965.7 L 470.406,-2969.01 L 470.938,-2972.42 L 471.41,-2975.83 L 471.764,-2979.25 L 471.971,-2982.75 L 472.03,-2986.25 L 472.03,-2989.76 L 471.882,-2993.26 L 471.676,-2996.76 L 471.292,-3000.22 L 470.79,-3003.63 L 470.288,-3007"/>
    <path style="fill: #b6c7c9" d="M 239.564 -3024.52 L 237.321,-3068.57 L 235.668,-3068.34 L 234.103,-3068.06 L 232.45,-3067.59 L 230.856,-3067.03 L 229.291,-3066.38 L 227.756,-3065.53 L 226.251,-3064.74 L 224.775,-3063.67 L 223.299,-3062.64 L 221.911,-3061.47 L 220.554,-3060.16 L 219.255,-3058.81 L 217.985,-3057.36 L 216.834,-3055.77 L 215.683,-3054.18 L 214.62,-3052.5 L 213.617,-3050.72 L 212.701,-3048.86 L 211.786,-3046.99 L 210.989,-3044.98 L 210.31,-3042.92 L 209.661,-3040.87 L 209.041,-3038.81 L 208.569,-3036.66 L 208.185,-3034.47 L 207.831,-3032.27 L 207.565,-3030.03 L 207.447,-3027.74 L 207.358,-3025.54 L 207.358,-3023.3 L 207.447,-3021.11 L 207.624,-3018.82 L 207.89,-3016.62 L 208.185,-3014.42 L 208.628,-3012.23 L 209.1,-3010.08 L 209.69,-3007.98 L 210.34,-3005.92 L 211.078,-3003.91 L 211.875,-3001.9 L 212.79,-3000.08 L 213.705,-2998.21 L 214.738,-2996.44 L 215.83,-2994.76 L 216.952,-2993.12 L 218.163,-2991.63 L 219.432,-2990.18 L 220.731,-2988.78 L 222.118,-2987.51 L 223.476,-2986.35 L 224.952,-2985.27 L 239.564,-3024.52z"/>
    <path style="fill: none; fill-opacity:0; stroke-width: 0.02; stroke: #6c8f93" d="M 237.321 -3068.57 L 235.756,-3068.34 L 234.133,-3068.06 L 232.538,-3067.59 L 231.003,-3067.08 L 229.439,-3066.42 L 227.904,-3065.72 L 226.428,-3064.83 L 224.981,-3063.9 L 223.535,-3062.87 L 222.207,-3061.7 L 220.819,-3060.44 L 219.55,-3059.13 L 218.31,-3057.73 L 217.129,-3056.19 L 215.949,-3054.6 L 214.915,-3053.01 L 213.882,-3051.24 L 212.967,-3049.46 L 212.081,-3047.59 L 211.314,-3045.68 L 210.576,-3043.72 L 209.868,-3041.75 L 209.277,-3039.7 L 208.746,-3037.6 L 208.303,-3035.45 L 207.978,-3033.3 L 207.654,-3031.1 L 207.476,-3028.91 L 207.358,-3026.71 L 207.358,-3024.52 L 207.358,-3022.32 L 207.536,-3020.12 L 207.713,-3017.93 L 207.978,-3015.73 L 208.362,-3013.58 L 208.746,-3011.48 L 209.277,-3009.43 L 209.927,-3007.28 L 210.576,-3005.27 L 211.314,-3003.35 L 212.141,-3001.44 L 212.997,-2999.57 L 213.912,-2997.79 L 214.915,-2996.06 L 216.008,-2994.43 L 217.159,-2992.84 L 218.34,-2991.35 L 219.609,-2989.94 L 220.849,-2988.59 L 222.207,-2987.37 L 223.594,-2986.25 L 225.011,-2985.18"/>
    <path style="fill: #b6c7c9" d="M 359.147 -2953.78 L 291.961,-2948.69 L 292.404,-2946.12 L 292.965,-2943.51 L 293.732,-2940.98 L 294.706,-2938.51 L 295.74,-2936.12 L 297.009,-2933.69 L 298.396,-2931.36 L 299.961,-2929.02 L 301.703,-2926.83 L 303.562,-2924.63 L 305.511,-2922.58 L 307.665,-2920.57 L 309.909,-2918.65 L 312.3,-2916.78 L 314.809,-2915.1 L 317.407,-2913.42 L 320.182,-2911.92 L 322.957,-2910.43 L 325.879,-2909.12 L 328.86,-2907.86 L 331.989,-2906.83 L 335.119,-2905.8 L 338.277,-2904.96 L 341.583,-2904.21 L 344.889,-2903.61 L 348.225,-2903.14 L 351.531,-2902.77 L 354.926,-2902.58 L 358.35,-2902.44 L 361.716,-2902.44 L 365.14,-2902.63 L 368.505,-2902.91 L 371.841,-2903.33 L 375.147,-2903.93 L 378.453,-2904.59 L 381.641,-2905.38 L 384.829,-2906.36 L 387.929,-2907.3 L 390.999,-2908.47 L 393.951,-2909.77 L 396.785,-2911.18 L 399.56,-2912.67 L 402.246,-2914.31 L 404.814,-2915.99 L 407.264,-2917.76 L 409.537,-2919.63 L 411.751,-2921.59 L 413.788,-2923.65 L 415.736,-2925.8 L 417.537,-2927.99 L 419.131,-2930.19 L 420.607,-2932.53 L 421.965,-2934.96 L 423.116,-2937.34 L 359.147,-2953.78z"/>
    <path style="fill: none; fill-opacity:0; stroke-width: 0.02; stroke: #6c8f93" d="M 292.02 -2948.6 L 292.404,-2946.07 L 292.994,-2943.51 L 293.732,-2940.98 L 294.706,-2938.51 L 295.799,-2936.03 L 297.009,-2933.69 L 298.426,-2931.36 L 299.961,-2929.02 L 301.703,-2926.83 L 303.562,-2924.63 L 305.511,-2922.58 L 307.665,-2920.57 L 309.968,-2918.65 L 312.3,-2916.78 L 314.809,-2915.1 L 317.407,-2913.42 L 320.182,-2911.92 L 322.957,-2910.48 L 325.879,-2909.12 L 328.86,-2907.86 L 331.93,-2906.83 L 335.06,-2905.8 L 338.248,-2904.96 L 341.554,-2904.21 L 344.83,-2903.61 L 348.166,-2903.19 L 351.502,-2902.77 L 354.867,-2902.58 L 358.262,-2902.44 L 361.657,-2902.49 L 365.022,-2902.63 L 368.387,-2903 L 371.782,-2903.33 L 375.088,-2903.93 L 378.335,-2904.64 L 381.582,-2905.38 L 384.741,-2906.27 L 387.84,-2907.3 L 390.881,-2908.47 L 393.803,-2909.77 L 396.696,-2911.18 L 399.471,-2912.62 L 402.128,-2914.17 L 404.696,-2915.89 L 407.116,-2917.67 L 409.478,-2919.54 L 411.662,-2921.59 L 413.729,-2923.6 L 415.677,-2925.75 L 417.419,-2927.85 L 419.072,-2930.19 L 420.548,-2932.48 L 421.847,-2934.86 L 423.057,-2937.29"/>
  </g>
  <g>
    <rect style="fill: #ffffff" x="484.493" y="-3181.08" width="434.8" height="45.4"/>
    <text font-size="38.9467" style="fill: #bfbfbf;text-anchor:start;font-family:serif;font-style:italic;font-weight:normal" x="484.493" y="-3144.88">
      <tspan x="484.493" y="-3144.88">iemailwill@gmail.com</tspan>
    </text>
  </g>
  <polyline style="fill: none; fill-opacity:0; stroke-width: 2; stroke: #000000" points="45.7677,-3324 45.7677,-3244.48 46.0763,-3244.48 "/>
  <polyline style="fill: none; fill-opacity:0; stroke-width: 2; stroke: #000000" points="46.0763,-3205.57 46.0763,-3178.13 46.0589,-3178.13 46.0589,-3150.69 "/>
  <polyline style="fill: none; fill-opacity:0; stroke-width: 2; stroke: #000000" points="46.0589,-3113.68 46.167,-3113.68 46.167,-3070.02 "/>
  <polyline style="fill: none; fill-opacity:0; stroke-width: 2; stroke: #000000" points="46.1722,-2989.36 46.1722,-3010.24 46.167,-3010.24 46.167,-3031.11 "/>
  <g>
    <polyline style="fill: none; fill-opacity:0; stroke-width: 2; stroke: #000000" points="288.802,-3225.79 311.825,-3225.79 311.825,-3225.8 339.848,-3225.8 "/>
    <polyline style="fill: none; fill-opacity:0; stroke-width: 2; stroke: #000000" points="288.802,-3220.79 316.825,-3220.79 316.825,-3220.8 339.848,-3220.8 "/>
  </g>
  <polyline style="fill: none; fill-opacity:0; stroke-width: 2; stroke: #000000" points="839.679,-3004.73 839.679,-3001.05 839.679,-3001.05 839.679,-2964.65 "/>
  <polyline style="fill: none; fill-opacity:0; stroke-width: 2; stroke: #000000" points="839.679,-3044.64 839.679,-3065.64 839.676,-3065.64 839.676,-3086.63 "/>
  <polyline style="fill: none; fill-opacity:0; stroke-width: 2; stroke: #000000" points="839.675,-3323.3 839.675,-3282.31 839.672,-3282.31 839.672,-3241.31 "/>
  <polyline style="fill: none; fill-opacity:0; stroke-width: 2; stroke: #000000" points="839.672,-3200.41 839.672,-3162.53 839.676,-3162.53 839.676,-3124.65 "/>
  <polyline style="fill: none; fill-opacity:0; stroke-width: 2; stroke: #000000" points="556.458,-3342.31 617.447,-3342.31 617.447,-3254.61 617.374,-3254.61 "/>
  <polyline style="fill: none; fill-opacity:0; stroke-width: 2; stroke: #000000" points="617.374,-3215.25 617.374,-3178.42 617.378,-3178.42 617.378,-3065.37 "/>
  <polyline style="fill: none; fill-opacity:0; stroke-width: 2; stroke: #000000" points="617.374,-3254.61 617.776,-3254.61 617.776,-3284.24 520.066,-3284.24 "/>
  <g>
    <rect style="fill: #ffffff" x="210.126" y="-3149.67" width="90.5" height="36"/>
    <rect style="fill: none; fill-opacity:0; stroke-width: 2; stroke: #000000" x="210.126" y="-3149.67" width="90.5" height="36"/>
    <text font-size="12.8" style="fill: #000000;text-anchor:middle;font-family:monospace;font-style:normal;font-weight:normal" x="255.376" y="-3127.67">客户端设备</text>
  </g>
  <g>
    <rect style="fill: #ffffff" x="1.18389" y="-3149.68" width="89.75" height="36"/>
    <rect style="fill: none; fill-opacity:0; stroke-width: 2; stroke: #000000" x="1.18389" y="-3149.68" width="89.75" height="36"/>
    <rect style="fill: none; fill-opacity:0; stroke-width: 2; stroke: #000000" x="6.18389" y="-3144.68" width="79.75" height="26"/>
    <text font-size="12.8" style="fill: #000000;text-anchor:middle;font-family:monospace;font-style:normal;font-weight:normal" x="46.0589" y="-3127.68">客户端用户</text>
  </g>
  <g>
    <rect style="fill: #ffffff" x="7.2927" y="-3360" width="76.95" height="36"/>
    <rect style="fill: none; fill-opacity:0; stroke-width: 2; stroke: #000000" x="7.2927" y="-3360" width="76.95" height="36"/>
    <text font-size="12.8" style="fill: #000000;text-anchor:middle;font-family:monospace;font-style:normal;font-weight:normal" x="45.7677" y="-3338">普通用户</text>
  </g>
  <g>
    <rect style="fill: #ffffff" x="9.12223" y="-2988.36" width="74.1" height="40"/>
    <rect style="fill: none; fill-opacity:0; stroke-width: 2; stroke: #000000" x="9.12223" y="-2988.36" width="74.1" height="40"/>
    <text font-size="16" style="fill: #000000;text-anchor:middle;font-family:monospace;font-style:normal;font-weight:normal" x="46.1722" y="-2963.36">管理员</text>
  </g>
  <g>
    <polygon style="fill: #ffffff" points="13.6513,-3225.02 46.0763,-3244.48 78.5013,-3225.02 46.0763,-3205.57 "/>
    <polygon style="fill: none; fill-opacity:0; stroke-width: 2; stroke: #000000" points="13.6513,-3225.02 46.0763,-3244.48 78.5013,-3225.02 46.0763,-3205.57 "/>
    <text font-size="12.8" style="fill: #000000;text-anchor:start;font-family:monospace;font-style:normal;font-weight:normal" x="50.0763" y="-3250.48">细分角色(N)</text>
    <text font-size="12.8" style="fill: #000000;text-anchor:start;font-family:monospace;font-style:normal;font-weight:normal" x="50.0763" y="-3183.57">概念角色(1)</text>
    <text font-size="12.8" style="fill: #000000;text-anchor:middle;font-family:monospace;font-style:normal;font-weight:normal" x="46.0763" y="-3221.02">继承</text>
  </g>
  <g>
    <polygon style="fill: #ffffff" points="13.742,-3050.56 46.167,-3070.02 78.592,-3050.56 46.167,-3031.11 "/>
    <polygon style="fill: none; fill-opacity:0; stroke-width: 2; stroke: #000000" points="13.742,-3050.56 46.167,-3070.02 78.592,-3050.56 46.167,-3031.11 "/>
    <text font-size="12.8" style="fill: #000000;text-anchor:start;font-family:monospace;font-style:normal;font-weight:normal" x="50.167" y="-3076.02">概念角色(1)</text>
    <text font-size="12.8" style="fill: #000000;text-anchor:start;font-family:monospace;font-style:normal;font-weight:normal" x="50.167" y="-3009.11">细分角色(N)</text>
    <text font-size="12.8" style="fill: #000000;text-anchor:middle;font-family:monospace;font-style:normal;font-weight:normal" x="46.167" y="-3046.56">继承</text>
  </g>
  <polyline style="fill: none; fill-opacity:0; stroke-width: 2; stroke: #000000" points="617.374,-3254.61 617.776,-3254.61 617.776,-3322.53 722.248,-3322.53 "/>
  <g>
    <rect style="fill: #ffffff" x="578.153" y="-3064.37" width="78.45" height="36"/>
    <rect style="fill: none; fill-opacity:0; stroke-width: 2; stroke: #000000" x="578.153" y="-3064.37" width="78.45" height="36"/>
    <rect style="fill: none; fill-opacity:0; stroke-width: 2; stroke: #000000" x="583.153" y="-3059.37" width="68.45" height="26"/>
    <text font-size="12.8" style="fill: #000000;text-anchor:middle;font-family:monospace;font-style:normal;font-weight:normal" x="617.378" y="-3042.37">业务系统</text>
  </g>
  <g>
    <rect style="fill: #ffffff" x="478.008" y="-3360.31" width="78.45" height="36"/>
    <rect style="fill: none; fill-opacity:0; stroke-width: 2; stroke: #000000" x="478.008" y="-3360.31" width="78.45" height="36"/>
    <text font-size="12.8" style="fill: #000000;text-anchor:middle;font-family:monospace;font-style:normal;font-weight:normal" x="517.233" y="-3338.31">验证模块</text>
  </g>
  <g>
    <rect style="fill: #ffffff" x="440.616" y="-3302.24" width="78.45" height="36"/>
    <rect style="fill: none; fill-opacity:0; stroke-width: 2; stroke: #000000" x="440.616" y="-3302.24" width="78.45" height="36"/>
    <text font-size="12.8" style="fill: #000000;text-anchor:middle;font-family:monospace;font-style:normal;font-weight:normal" x="479.841" y="-3280.24">营销模块</text>
  </g>
  <g>
    <polygon style="fill: #ffffff" points="584.574,-3234.93 617.374,-3254.61 650.174,-3234.93 617.374,-3215.25 "/>
    <polygon style="fill: none; fill-opacity:0; stroke-width: 2; stroke: #000000" points="584.574,-3234.93 617.374,-3254.61 650.174,-3234.93 617.374,-3215.25 "/>
    <text font-size="12.8" style="fill: #000000;text-anchor:start;font-family:monospace;font-style:normal;font-weight:normal" x="621.374" y="-3260.61">细分模块(1)</text>
    <text font-size="12.8" style="fill: #000000;text-anchor:start;font-family:monospace;font-style:normal;font-weight:normal" x="621.374" y="-3193.25">概念模块(1)</text>
    <text font-size="12.8" style="fill: #000000;text-anchor:middle;font-family:monospace;font-style:normal;font-weight:normal" x="617.374" y="-3230.93">从属</text>
  </g>
  <g>
    <rect style="fill: #ffffff" x="645.298" y="-3340.53" width="76.95" height="36"/>
    <rect style="fill: none; fill-opacity:0; stroke-width: 2; stroke: #000000" x="645.298" y="-3340.53" width="76.95" height="36"/>
    <text font-size="12.8" style="fill: #000000;text-anchor:middle;font-family:monospace;font-style:normal;font-weight:normal" x="683.773" y="-3318.53">管理模块</text>
  </g>
  <g>
    <rect style="fill: #ffffff" x="794.801" y="-3123.64" width="89.75" height="36"/>
    <rect style="fill: none; fill-opacity:0; stroke-width: 2; stroke: #000000" x="794.801" y="-3123.64" width="89.75" height="36"/>
    <rect style="fill: none; fill-opacity:0; stroke-width: 2; stroke: #000000" x="799.801" y="-3118.64" width="79.75" height="26"/>
    <text font-size="12.8" style="fill: #000000;text-anchor:middle;font-family:monospace;font-style:normal;font-weight:normal" x="839.676" y="-3101.64">服务端用户</text>
  </g>
  <g>
    <polygon style="fill: #ffffff" points="807.254,-3024.19 839.679,-3043.64 872.104,-3024.19 839.679,-3004.73 "/>
    <polygon style="fill: none; fill-opacity:0; stroke-width: 2; stroke: #000000" points="807.254,-3024.19 839.679,-3043.64 872.104,-3024.19 839.679,-3004.73 "/>
    <text font-size="12.8" style="fill: #000000;text-anchor:start;font-family:monospace;font-style:normal;font-weight:normal" x="843.679" y="-3049.64">概念角色(1)</text>
    <text font-size="12.8" style="fill: #000000;text-anchor:start;font-family:monospace;font-style:normal;font-weight:normal" x="843.679" y="-2982.73">细分角色(N)</text>
    <text font-size="12.8" style="fill: #000000;text-anchor:middle;font-family:monospace;font-style:normal;font-weight:normal" x="839.679" y="-3020.19">继承</text>
  </g>
  <g>
    <rect style="fill: #ffffff" x="813.254" y="-2963.64" width="52.85" height="36"/>
    <rect style="fill: none; fill-opacity:0; stroke-width: 2; stroke: #000000" x="813.254" y="-2963.64" width="52.85" height="36"/>
    <text font-size="12.8" style="fill: #000000;text-anchor:middle;font-family:monospace;font-style:normal;font-weight:normal" x="839.679" y="-2941.64">用户</text>
  </g>
  <g>
    <rect style="fill: #ffffff" x="807.225" y="-3360.31" width="64.9" height="36"/>
    <rect style="fill: none; fill-opacity:0; stroke-width: 2; stroke: #000000" x="807.225" y="-3360.31" width="64.9" height="36"/>
    <text font-size="12.8" style="fill: #000000;text-anchor:middle;font-family:monospace;font-style:normal;font-weight:normal" x="839.675" y="-3338.31">管理员</text>
  </g>
  <g>
    <polygon style="fill: #ffffff" points="807.247,-3220.86 839.672,-3240.31 872.097,-3220.86 839.672,-3201.4 "/>
    <polygon style="fill: none; fill-opacity:0; stroke-width: 2; stroke: #000000" points="807.247,-3220.86 839.672,-3240.31 872.097,-3220.86 839.672,-3201.4 "/>
    <text font-size="12.8" style="fill: #000000;text-anchor:start;font-family:monospace;font-style:normal;font-weight:normal" x="843.672" y="-3246.31">细分角色(N)</text>
    <text font-size="12.8" style="fill: #000000;text-anchor:start;font-family:monospace;font-style:normal;font-weight:normal" x="843.672" y="-3179.4">概念角色(1)</text>
    <text font-size="12.8" style="fill: #000000;text-anchor:middle;font-family:monospace;font-style:normal;font-weight:normal" x="839.672" y="-3216.86">继承</text>
  </g>
  <g>
    <rect style="fill: #ffffff" x="339.251" y="-3064.34" width="65.65" height="36"/>
    <rect style="fill: none; fill-opacity:0; stroke-width: 2; stroke: #000000" x="339.251" y="-3064.34" width="65.65" height="36"/>
    <rect style="fill: none; fill-opacity:0; stroke-width: 2; stroke: #000000" x="344.251" y="-3059.34" width="55.65" height="26"/>
    <text font-size="12.8" style="fill: #000000;text-anchor:middle;font-family:monospace;font-style:normal;font-weight:normal" x="372.076" y="-3042.34">互联网</text>
  </g>
  <g>
    <rect style="fill: #ffffff" x="339.848" y="-3241.3" width="64.15" height="36"/>
    <rect style="fill: none; fill-opacity:0; stroke-width: 2; stroke: #000000" x="339.848" y="-3241.3" width="64.15" height="36"/>
    <text font-size="12.8" style="fill: #000000;text-anchor:middle;font-family:monospace;font-style:normal;font-weight:normal" x="371.923" y="-3219.3">路由器</text>
  </g>
  <g>
    <polygon style="fill: #ffffff" points="114.021,-3131.69 146.071,-3150.92 178.121,-3131.69 146.071,-3112.46 "/>
    <polygon style="fill: none; fill-opacity:0; stroke-width: 2; stroke: #000000" points="114.021,-3131.69 146.071,-3150.92 178.121,-3131.69 146.071,-3112.46 "/>
    <text font-size="12.7998" style="fill: #000000;text-anchor:end;font-family:monospace;font-style:normal;font-weight:normal" x="108.021" y="-3137.69">1</text>
    <text font-size="12.7998" style="fill: #000000;text-anchor:start;font-family:monospace;font-style:normal;font-weight:normal" x="184.121" y="-3137.69">1</text>
    <text font-size="12.7998" style="fill: #000000;text-anchor:middle;font-family:monospace;font-style:normal;font-weight:normal" x="146.071" y="-3127.69">操作</text>
  </g>
  <g>
    <polyline style="fill: none; fill-opacity:0; stroke-width: 2; stroke: #000000" points="91.9321,-3134.18 100.48,-3134.18 100.48,-3134.19 114.021,-3134.19 "/>
    <polyline style="fill: none; fill-opacity:0; stroke-width: 2; stroke: #000000" points="91.9321,-3129.18 105.48,-3129.18 105.48,-3129.19 114.021,-3129.19 "/>
  </g>
  <polyline style="fill: none; fill-opacity:0; stroke-width: 2; stroke: #000000" points="179.114,-3131.69 194.117,-3131.69 194.117,-3131.67 209.125,-3131.67 "/>
  <g>
    <polygon style="fill: #ffffff" points="222.955,-3223.29 255.38,-3242.75 287.805,-3223.29 255.38,-3203.84 "/>
    <polygon style="fill: none; fill-opacity:0; stroke-width: 2; stroke: #000000" points="222.955,-3223.29 255.38,-3242.75 287.805,-3223.29 255.38,-3203.84 "/>
    <text font-size="12.7998" style="fill: #000000;text-anchor:end;font-family:monospace;font-style:normal;font-weight:normal" x="216.955" y="-3229.29">N</text>
    <text font-size="12.7998" style="fill: #000000;text-anchor:start;font-family:monospace;font-style:normal;font-weight:normal" x="293.805" y="-3229.29">1</text>
    <text font-size="12.7998" style="fill: #000000;text-anchor:middle;font-family:monospace;font-style:normal;font-weight:normal" x="255.38" y="-3219.29">通讯</text>
  </g>
  <g>
    <polyline style="fill: none; fill-opacity:0; stroke-width: 2; stroke: #000000" points="257.88,-3203.84 257.88,-3184.46 257.876,-3184.46 257.876,-3149.81 "/>
    <polyline style="fill: none; fill-opacity:0; stroke-width: 2; stroke: #000000" points="252.88,-3203.84 252.88,-3189.46 252.876,-3189.46 252.876,-3149.81 "/>
  </g>
  <g>
    <polygon style="fill: #ffffff" points="339.523,-3135.88 371.948,-3155.34 404.373,-3135.88 371.948,-3116.43 "/>
    <polygon style="fill: none; fill-opacity:0; stroke-width: 2; stroke: #000000" points="339.523,-3135.88 371.948,-3155.34 404.373,-3135.88 371.948,-3116.43 "/>
    <polygon style="fill: none; fill-opacity:0; stroke-width: 2; stroke: #000000" points="347.523,-3135.88 371.948,-3150.54 396.373,-3135.88 371.948,-3121.23 "/>
    <text font-size="12.7998" style="fill: #000000;text-anchor:start;font-family:monospace;font-style:normal;font-weight:normal" x="375.948" y="-3161.34">N</text>
    <text font-size="12.7998" style="fill: #000000;text-anchor:start;font-family:monospace;font-style:normal;font-weight:normal" x="375.948" y="-3094.43">N</text>
    <text font-size="12.7998" style="fill: #000000;text-anchor:middle;font-family:monospace;font-style:normal;font-weight:normal" x="371.948" y="-3131.88">通讯</text>
  </g>
  <g>
    <polyline style="fill: none; fill-opacity:0; stroke-width: 2; stroke: #000000" points="374.423,-3204.29 374.423,-3182.81 374.448,-3182.81 374.448,-3156.33 "/>
    <polyline style="fill: none; fill-opacity:0; stroke-width: 2; stroke: #000000" points="369.423,-3204.29 369.423,-3177.81 369.448,-3177.81 369.448,-3156.33 "/>
  </g>
  <g>
    <polyline style="fill: none; fill-opacity:0; stroke-width: 2; stroke: #000000" points="374.448,-3115.43 374.448,-3092.89 374.576,-3092.89 374.576,-3065.35 "/>
    <polyline style="fill: none; fill-opacity:0; stroke-width: 2; stroke: #000000" points="369.448,-3115.43 369.448,-3087.89 369.576,-3087.89 369.576,-3065.35 "/>
  </g>
  <g>
    <polygon style="fill: #ffffff" points="222.949,-3046.3 255.374,-3065.76 287.799,-3046.3 255.374,-3026.85 "/>
    <polygon style="fill: none; fill-opacity:0; stroke-width: 2; stroke: #000000" points="222.949,-3046.3 255.374,-3065.76 287.799,-3046.3 255.374,-3026.85 "/>
    <polygon style="fill: none; fill-opacity:0; stroke-width: 2; stroke: #000000" points="230.949,-3046.3 255.374,-3060.96 279.799,-3046.3 255.374,-3031.65 "/>
    <text font-size="12.7998" style="fill: #000000;text-anchor:end;font-family:monospace;font-style:normal;font-weight:normal" x="216.949" y="-3052.3">N</text>
    <text font-size="12.7998" style="fill: #000000;text-anchor:start;font-family:monospace;font-style:normal;font-weight:normal" x="293.799" y="-3052.3">N</text>
    <text font-size="12.7998" style="fill: #000000;text-anchor:middle;font-family:monospace;font-style:normal;font-weight:normal" x="255.374" y="-3042.3">通讯</text>
  </g>
  <g>
    <polyline style="fill: none; fill-opacity:0; stroke-width: 2; stroke: #000000" points="257.876,-3112.71 257.876,-3087.06 257.874,-3087.06 257.874,-3066.76 "/>
    <polyline style="fill: none; fill-opacity:0; stroke-width: 2; stroke: #000000" points="252.876,-3112.71 252.876,-3092.06 252.874,-3092.06 252.874,-3066.76 "/>
  </g>
  <g>
    <polyline style="fill: none; fill-opacity:0; stroke-width: 2; stroke: #000000" points="288.805,-3048.8 311.632,-3048.8 311.632,-3048.84 339.251,-3048.84 "/>
    <polyline style="fill: none; fill-opacity:0; stroke-width: 2; stroke: #000000" points="288.805,-3043.8 316.632,-3043.8 316.632,-3043.84 339.251,-3043.84 "/>
  </g>
  <g>
    <polygon style="fill: #ffffff" points="450.379,-3046.27 482.804,-3065.72 515.229,-3046.27 482.804,-3026.81 "/>
    <polygon style="fill: none; fill-opacity:0; stroke-width: 2; stroke: #000000" points="450.379,-3046.27 482.804,-3065.72 515.229,-3046.27 482.804,-3026.81 "/>
    <polygon style="fill: none; fill-opacity:0; stroke-width: 2; stroke: #000000" points="458.379,-3046.27 482.804,-3060.92 507.229,-3046.27 482.804,-3031.61 "/>
    <text font-size="12.7998" style="fill: #000000;text-anchor:end;font-family:monospace;font-style:normal;font-weight:normal" x="444.379" y="-3052.27">N</text>
    <text font-size="12.7998" style="fill: #000000;text-anchor:start;font-family:monospace;font-style:normal;font-weight:normal" x="521.229" y="-3052.27">1</text>
    <text font-size="12.7998" style="fill: #000000;text-anchor:middle;font-family:monospace;font-style:normal;font-weight:normal" x="482.804" y="-3042.27">通讯</text>
  </g>
  <g>
    <polyline style="fill: none; fill-opacity:0; stroke-width: 2; stroke: #000000" points="405.909,-3048.84 430.644,-3048.84 430.644,-3048.77 450.379,-3048.77 "/>
    <polyline style="fill: none; fill-opacity:0; stroke-width: 2; stroke: #000000" points="405.909,-3043.84 425.644,-3043.84 425.644,-3043.77 450.379,-3043.77 "/>
  </g>
  <g>
    <polyline style="fill: none; fill-opacity:0; stroke-width: 2; stroke: #000000" points="516.227,-3048.77 544.185,-3048.77 544.185,-3048.87 577.143,-3048.87 "/>
    <polyline style="fill: none; fill-opacity:0; stroke-width: 2; stroke: #000000" points="516.227,-3043.77 549.185,-3043.77 549.185,-3043.87 577.143,-3043.87 "/>
  </g>
  <g>
    <rect style="fill: #ffffff" x="572.133" y="-2931.61" width="90.5" height="36"/>
    <rect style="fill: none; fill-opacity:0; stroke-width: 2; stroke: #000000" x="572.133" y="-2931.61" width="90.5" height="36"/>
    <text font-size="12.7998" style="fill: #000000;text-anchor:middle;font-family:monospace;font-style:normal;font-weight:normal" x="617.383" y="-2909.61">服务端设备</text>
  </g>
  <g>
    <polygon style="fill: #ffffff" points="339.736,-2913.61 372.161,-2933.06 404.586,-2913.61 372.161,-2894.15 "/>
    <polygon style="fill: none; fill-opacity:0; stroke-width: 2; stroke: #000000" points="339.736,-2913.61 372.161,-2933.06 404.586,-2913.61 372.161,-2894.15 "/>
    <polygon style="fill: none; fill-opacity:0; stroke-width: 2; stroke: #000000" points="347.736,-2913.61 372.161,-2928.26 396.586,-2913.61 372.161,-2898.95 "/>
    <text font-size="12.7998" style="fill: #000000;text-anchor:end;font-family:monospace;font-style:normal;font-weight:normal" x="333.736" y="-2919.61">N</text>
    <text font-size="12.7998" style="fill: #000000;text-anchor:start;font-family:monospace;font-style:normal;font-weight:normal" x="410.586" y="-2919.61">N</text>
    <text font-size="12.7998" style="fill: #000000;text-anchor:middle;font-family:monospace;font-style:normal;font-weight:normal" x="372.161" y="-2909.61">通讯</text>
  </g>
  <g>
    <polyline style="fill: none; fill-opacity:0; stroke-width: 2; stroke: #000000" points="374.576,-3027.33 374.576,-2983.2 374.661,-2983.2 374.661,-2934.07 "/>
    <polyline style="fill: none; fill-opacity:0; stroke-width: 2; stroke: #000000" points="369.576,-3027.33 369.576,-2978.2 369.661,-2978.2 369.661,-2934.07 "/>
  </g>
  <g>
    <polyline style="fill: none; fill-opacity:0; stroke-width: 2; stroke: #000000" points="405.583,-2916.11 485.855,-2916.11 485.855,-2916.11 571.127,-2916.11 "/>
    <polyline style="fill: none; fill-opacity:0; stroke-width: 2; stroke: #000000" points="405.583,-2911.11 490.855,-2911.11 490.855,-2911.11 571.127,-2911.11 "/>
  </g>
  <g>
    <polygon style="fill: #ffffff" points="584.976,-2977.82 617.401,-2997.28 649.826,-2977.82 617.401,-2958.37 "/>
    <polygon style="fill: none; fill-opacity:0; stroke-width: 2; stroke: #000000" points="584.976,-2977.82 617.401,-2997.28 649.826,-2977.82 617.401,-2958.37 "/>
    <text font-size="12.7998" style="fill: #000000;text-anchor:start;font-family:monospace;font-style:normal;font-weight:normal" x="621.401" y="-3003.28">1</text>
    <text font-size="12.7998" style="fill: #000000;text-anchor:start;font-family:monospace;font-style:normal;font-weight:normal" x="621.401" y="-2936.37">N</text>
    <text font-size="12.7998" style="fill: #000000;text-anchor:middle;font-family:monospace;font-style:normal;font-weight:normal" x="617.401" y="-2973.82">通讯</text>
  </g>
  <g>
    <polyline style="fill: none; fill-opacity:0; stroke-width: 2; stroke: #000000" points="619.878,-3027.37 619.878,-3014.82 619.901,-3014.82 619.901,-2997.28 "/>
    <polyline style="fill: none; fill-opacity:0; stroke-width: 2; stroke: #000000" points="614.878,-3027.37 614.878,-3009.82 614.901,-3009.82 614.901,-2997.28 "/>
  </g>
  <g>
    <polyline style="fill: none; fill-opacity:0; stroke-width: 2; stroke: #000000" points="619.901,-2958.37 619.901,-2935.5 619.883,-2935.5 619.883,-2931.61 "/>
    <polyline style="fill: none; fill-opacity:0; stroke-width: 2; stroke: #000000" points="614.901,-2958.37 614.901,-2940.5 614.883,-2940.5 614.883,-2931.61 "/>
  </g>
  <g>
    <polygon style="fill: #ffffff" points="710.194,-2981.01 742.244,-3000.24 774.294,-2981.01 742.244,-2961.78 "/>
    <polygon style="fill: none; fill-opacity:0; stroke-width: 2; stroke: #000000" points="710.194,-2981.01 742.244,-3000.24 774.294,-2981.01 742.244,-2961.78 "/>
    <text font-size="12.7998" style="fill: #000000;text-anchor:start;font-family:monospace;font-style:normal;font-weight:normal" x="746.244" y="-3006.24">1</text>
    <text font-size="12.7998" style="fill: #000000;text-anchor:start;font-family:monospace;font-style:normal;font-weight:normal" x="746.244" y="-2939.78">1</text>
    <text font-size="12.7998" style="fill: #000000;text-anchor:middle;font-family:monospace;font-style:normal;font-weight:normal" x="742.244" y="-2977.01">操作</text>
  </g>
  <g>
    <polyline style="fill: none; fill-opacity:0; stroke-width: 2; stroke: #000000" points="794.801,-3103.14 744.744,-3103.14 744.744,-3001.23 "/>
    <polyline style="fill: none; fill-opacity:0; stroke-width: 2; stroke: #000000" points="794.801,-3108.14 739.744,-3108.14 739.744,-3001.23 "/>
  </g>
  <g>
    <polyline style="fill: none; fill-opacity:0; stroke-width: 2; stroke: #000000" points="744.744,-2961.78 744.744,-2911.11 662.633,-2911.11 "/>
    <polyline style="fill: none; fill-opacity:0; stroke-width: 2; stroke: #000000" points="739.744,-2961.78 739.744,-2916.11 662.633,-2916.11 "/>
  </g>
</svg>
